G04 #@! TF.FileFunction,Copper,L1,Top,Signal*
%FSLAX46Y46*%
G04 Gerber Fmt 4.6, Leading zero omitted, Abs format (unit mm)*
G04 Created by KiCad (PCBNEW (2015-09-28 BZR 6225)-product) date fre 11 dec 2015 17:30:42*
%MOMM*%
G01*
G04 APERTURE LIST*
%ADD10C,0.100000*%
%ADD11R,1.600200X2.600960*%
%ADD12R,2.600960X1.600200*%
%ADD13R,1.727200X1.727200*%
%ADD14O,1.727200X1.727200*%
%ADD15R,1.727200X2.032000*%
%ADD16O,1.727200X2.032000*%
%ADD17R,1.500000X1.300000*%
%ADD18R,1.550000X1.300000*%
%ADD19R,1.300000X0.250000*%
%ADD20R,0.250000X1.300000*%
%ADD21R,1.300000X1.500000*%
%ADD22R,2.000000X1.600000*%
%ADD23R,2.032000X2.032000*%
%ADD24O,2.032000X2.032000*%
%ADD25R,1.800860X0.800100*%
%ADD26R,0.800000X1.300000*%
%ADD27R,2.100000X3.000000*%
%ADD28R,1.300000X0.800000*%
%ADD29R,3.000000X2.100000*%
%ADD30R,1.500000X1.250000*%
%ADD31R,1.600000X2.000000*%
%ADD32R,1.250000X1.500000*%
%ADD33R,1.700000X2.000000*%
%ADD34C,2.540000*%
%ADD35C,0.500000*%
%ADD36C,0.250000*%
%ADD37C,0.254000*%
G04 APERTURE END LIST*
D10*
D11*
X178750000Y-52199140D03*
X178750000Y-55800860D03*
D12*
X189050860Y-72750000D03*
X185449140Y-72750000D03*
D13*
X194000000Y-54000000D03*
D14*
X194000000Y-56540000D03*
X191460000Y-54000000D03*
X191460000Y-56540000D03*
X188920000Y-54000000D03*
X188920000Y-56540000D03*
X186380000Y-54000000D03*
X186380000Y-56540000D03*
D15*
X154920000Y-53300000D03*
D16*
X157460000Y-53300000D03*
X160000000Y-53300000D03*
X162540000Y-53300000D03*
X165080000Y-53300000D03*
D17*
X128350000Y-59000000D03*
X131050000Y-59000000D03*
X139850000Y-59100000D03*
X142550000Y-59100000D03*
D18*
X136325000Y-56550000D03*
X136325000Y-52050000D03*
X144275000Y-52050000D03*
X144275000Y-56550000D03*
X124825000Y-56550000D03*
X124825000Y-52050000D03*
X132775000Y-52050000D03*
X132775000Y-56550000D03*
D19*
X155900000Y-60750000D03*
X155900000Y-61250000D03*
X155900000Y-61750000D03*
X155900000Y-62250000D03*
X155900000Y-62750000D03*
X155900000Y-63250000D03*
X155900000Y-63750000D03*
X155900000Y-64250000D03*
X155900000Y-64750000D03*
X155900000Y-65250000D03*
X155900000Y-65750000D03*
X155900000Y-66250000D03*
D20*
X157500000Y-67850000D03*
X158000000Y-67850000D03*
X158500000Y-67850000D03*
X159000000Y-67850000D03*
X159500000Y-67850000D03*
X160000000Y-67850000D03*
X160500000Y-67850000D03*
X161000000Y-67850000D03*
X161500000Y-67850000D03*
X162000000Y-67850000D03*
X162500000Y-67850000D03*
X163000000Y-67850000D03*
D19*
X164600000Y-66250000D03*
X164600000Y-65750000D03*
X164600000Y-65250000D03*
X164600000Y-64750000D03*
X164600000Y-64250000D03*
X164600000Y-63750000D03*
X164600000Y-63250000D03*
X164600000Y-62750000D03*
X164600000Y-62250000D03*
X164600000Y-61750000D03*
X164600000Y-61250000D03*
X164600000Y-60750000D03*
D20*
X163000000Y-59150000D03*
X162500000Y-59150000D03*
X162000000Y-59150000D03*
X161500000Y-59150000D03*
X161000000Y-59150000D03*
X160500000Y-59150000D03*
X160000000Y-59150000D03*
X159500000Y-59150000D03*
X159000000Y-59150000D03*
X158500000Y-59150000D03*
X158000000Y-59150000D03*
X157500000Y-59150000D03*
D21*
X151000000Y-84600000D03*
X151000000Y-81900000D03*
X148750000Y-68900000D03*
X148750000Y-71600000D03*
D22*
X189250000Y-68750000D03*
X193250000Y-68750000D03*
X189250000Y-65750000D03*
X193250000Y-65750000D03*
D23*
X197000000Y-68250000D03*
D24*
X197000000Y-70790000D03*
D23*
X171500000Y-56250000D03*
D24*
X174040000Y-56250000D03*
D25*
X193248860Y-60800000D03*
X193248860Y-62700000D03*
X196251140Y-61750000D03*
D26*
X128400000Y-91450000D03*
X129650000Y-91450000D03*
X130900000Y-91450000D03*
X132150000Y-91450000D03*
X133400000Y-91450000D03*
X134650000Y-91450000D03*
X135900000Y-91450000D03*
X137150000Y-91450000D03*
D27*
X125850000Y-94200000D03*
X139700000Y-94200000D03*
D26*
X146300000Y-91450000D03*
X147550000Y-91450000D03*
X148800000Y-91450000D03*
X150050000Y-91450000D03*
X151300000Y-91450000D03*
X152550000Y-91450000D03*
X153800000Y-91450000D03*
X155050000Y-91450000D03*
D27*
X143750000Y-94200000D03*
X157600000Y-94200000D03*
D26*
X164125000Y-91500000D03*
X165375000Y-91500000D03*
X166625000Y-91500000D03*
X167875000Y-91500000D03*
X169125000Y-91500000D03*
X170375000Y-91500000D03*
X171625000Y-91500000D03*
X172875000Y-91500000D03*
D27*
X161575000Y-94250000D03*
X175425000Y-94250000D03*
D26*
X182000000Y-91500000D03*
X183250000Y-91500000D03*
X184500000Y-91500000D03*
X185750000Y-91500000D03*
X187000000Y-91500000D03*
X188250000Y-91500000D03*
X189500000Y-91500000D03*
X190750000Y-91500000D03*
D27*
X179450000Y-94250000D03*
X193300000Y-94250000D03*
D28*
X193500000Y-85550000D03*
X193500000Y-84300000D03*
X193500000Y-83050000D03*
X193500000Y-81800000D03*
X193500000Y-80550000D03*
X193500000Y-79300000D03*
X193500000Y-78050000D03*
X193500000Y-76800000D03*
D29*
X196250000Y-88100000D03*
X196250000Y-74250000D03*
D28*
X127000000Y-75950000D03*
X127000000Y-77200000D03*
X127000000Y-78450000D03*
X127000000Y-79700000D03*
X127000000Y-80950000D03*
X127000000Y-82200000D03*
X127000000Y-83450000D03*
X127000000Y-84700000D03*
D29*
X124250000Y-73400000D03*
X124250000Y-87250000D03*
D30*
X195000000Y-59000000D03*
X197500000Y-59000000D03*
D22*
X167000000Y-87250000D03*
X171000000Y-87250000D03*
X184750000Y-87250000D03*
X188750000Y-87250000D03*
D31*
X189500000Y-83000000D03*
X189500000Y-79000000D03*
X131000000Y-79250000D03*
X131000000Y-83250000D03*
D22*
X149250000Y-88000000D03*
X153250000Y-88000000D03*
X131500000Y-87500000D03*
X135500000Y-87500000D03*
D30*
X165250000Y-56500000D03*
X167750000Y-56500000D03*
D32*
X152250000Y-65750000D03*
X152250000Y-63250000D03*
D33*
X135000000Y-78000000D03*
X135000000Y-74000000D03*
D34*
X180000000Y-70250000D03*
X183500000Y-80500000D03*
X168500000Y-82250000D03*
X156500000Y-81500000D03*
X139000000Y-87000000D03*
X137500000Y-80500000D03*
X135000000Y-65250000D03*
D35*
X194000000Y-56540000D02*
X194000000Y-58000000D01*
X194000000Y-58000000D02*
X195000000Y-59000000D01*
X193248860Y-62700000D02*
X193749240Y-62700000D01*
X195000000Y-60125000D02*
X195000000Y-59000000D01*
X193749240Y-62700000D02*
X194850709Y-61598531D01*
X194850709Y-61598531D02*
X194850709Y-60274291D01*
X194850709Y-60274291D02*
X195000000Y-60125000D01*
X135000000Y-78000000D02*
X132250000Y-78000000D01*
X132250000Y-78000000D02*
X131000000Y-79250000D01*
X147000000Y-72000000D02*
X147000000Y-70750000D01*
X147000000Y-70750000D02*
X148750000Y-69000000D01*
X148750000Y-69000000D02*
X148750000Y-68900000D01*
X145000000Y-74000000D02*
X147000000Y-72000000D01*
X135000000Y-74000000D02*
X145000000Y-74000000D01*
X122799998Y-89250000D02*
X128250000Y-89250000D01*
X128250000Y-89250000D02*
X130000000Y-87500000D01*
X130000000Y-87500000D02*
X131500000Y-87500000D01*
X122250000Y-83300000D02*
X122249999Y-88700001D01*
X122249999Y-88700001D02*
X122799998Y-89250000D01*
X127000000Y-79700000D02*
X125850000Y-79700000D01*
X125850000Y-79700000D02*
X122250000Y-83300000D01*
X132150000Y-91450000D02*
X132150000Y-92600000D01*
X132150000Y-92600000D02*
X132800000Y-93250000D01*
X196700000Y-56900000D02*
X196700000Y-55156575D01*
X196700000Y-55156575D02*
X196700000Y-52900000D01*
X150050000Y-91450000D02*
X150050001Y-92600001D01*
X150050001Y-92600001D02*
X155799999Y-92600001D01*
X155799999Y-92600001D02*
X161150000Y-87250000D01*
X161150000Y-87250000D02*
X165500000Y-87250000D01*
X165500000Y-87250000D02*
X167000000Y-87250000D01*
X189500000Y-83000000D02*
X189000000Y-83000000D01*
X189000000Y-83000000D02*
X184750000Y-87250000D01*
X193500000Y-81800000D02*
X194650001Y-81799999D01*
X194650001Y-81799999D02*
X194650001Y-75999999D01*
X194650001Y-75999999D02*
X191400002Y-72750000D01*
X191400002Y-72750000D02*
X190851340Y-72750000D01*
X190851340Y-72750000D02*
X189050860Y-72750000D01*
X191000000Y-67800000D02*
X191000000Y-71301240D01*
X191000000Y-71301240D02*
X189551240Y-72750000D01*
X189551240Y-72750000D02*
X189050860Y-72750000D01*
X193250000Y-65750000D02*
X193050000Y-65750000D01*
X193050000Y-65750000D02*
X191000000Y-67800000D01*
X177672266Y-51400000D02*
X179235754Y-51400000D01*
X168343600Y-51400000D02*
X177672266Y-51400000D01*
X177672266Y-51400000D02*
X177950860Y-51400000D01*
X177950860Y-51400000D02*
X178750000Y-52199140D01*
X179235754Y-51400000D02*
X195200000Y-51400000D01*
X179250000Y-51414246D02*
X179235754Y-51400000D01*
X163333784Y-55198616D02*
X163823616Y-55198616D01*
X163823616Y-55198616D02*
X165125000Y-56500000D01*
X165125000Y-56500000D02*
X165250000Y-56500000D01*
X163333784Y-55198616D02*
X165080000Y-53452400D01*
X160801384Y-55198616D02*
X163333784Y-55198616D01*
X159500000Y-56500000D02*
X160801384Y-55198616D01*
X159500000Y-57500000D02*
X159500000Y-56500000D01*
D36*
X160000000Y-67850000D02*
X159877912Y-67850000D01*
X159877912Y-67850000D02*
X159750000Y-67722088D01*
D35*
X159750000Y-66000000D02*
X159750000Y-67722088D01*
X159750000Y-67722088D02*
X159750000Y-68750000D01*
D36*
X159500000Y-67850000D02*
X159622088Y-67850000D01*
X159622088Y-67850000D02*
X159750000Y-67722088D01*
D35*
X152500000Y-79500000D02*
X152500000Y-83000000D01*
X152500000Y-83000000D02*
X151000000Y-84500000D01*
X151000000Y-84500000D02*
X151000000Y-84600000D01*
X160000000Y-72000000D02*
X152500000Y-79500000D01*
X160000000Y-69000000D02*
X160000000Y-72000000D01*
X159750000Y-68750000D02*
X160000000Y-69000000D01*
X158500000Y-64750000D02*
X159750000Y-66000000D01*
X158500000Y-64250000D02*
X158500000Y-64750000D01*
X149250000Y-88000000D02*
X149250000Y-86350000D01*
X149250000Y-86350000D02*
X151000000Y-84600000D01*
X148750000Y-68900000D02*
X149100000Y-68900000D01*
X149100000Y-68900000D02*
X152250000Y-65750000D01*
D36*
X155000000Y-64250000D02*
X153500000Y-65750000D01*
X153500000Y-65750000D02*
X152250000Y-65750000D01*
X155900000Y-64250000D02*
X155000000Y-64250000D01*
D35*
X171500000Y-56250000D02*
X171500000Y-54734000D01*
X171500000Y-54734000D02*
X168343600Y-51577600D01*
X168343600Y-51577600D02*
X168343600Y-51400000D01*
X127000000Y-79700000D02*
X130550000Y-79700000D01*
X130550000Y-79700000D02*
X131000000Y-79250000D01*
X132150000Y-91450000D02*
X132150000Y-88150000D01*
X132150000Y-88150000D02*
X131500000Y-87500000D01*
X150050000Y-91450000D02*
X150050000Y-88800000D01*
X150050000Y-88800000D02*
X149250000Y-88000000D01*
X167875000Y-91500000D02*
X167875000Y-88125000D01*
X167875000Y-88125000D02*
X167000000Y-87250000D01*
X185750000Y-91500000D02*
X185750000Y-88250000D01*
X185750000Y-88250000D02*
X184750000Y-87250000D01*
X193500000Y-81800000D02*
X190700000Y-81800000D01*
X190700000Y-81800000D02*
X189500000Y-83000000D01*
X193248860Y-62700000D02*
X193248860Y-65748860D01*
X193248860Y-65748860D02*
X193250000Y-65750000D01*
X158500000Y-64250000D02*
X159500000Y-63250000D01*
X159500000Y-63250000D02*
X159500000Y-60750000D01*
X157500000Y-64250000D02*
X158500000Y-64250000D01*
X165080000Y-53452400D02*
X165080000Y-53300000D01*
D36*
X159500000Y-59150000D02*
X159500000Y-57500000D01*
X159500000Y-59150000D02*
X159500000Y-60750000D01*
X155900000Y-64250000D02*
X157500000Y-64250000D01*
D35*
X196700000Y-52900000D02*
X195200000Y-51400000D01*
X196196401Y-57403599D02*
X196700000Y-56900000D01*
X194000000Y-56540000D02*
X194863599Y-57403599D01*
X194863599Y-57403599D02*
X196196401Y-57403599D01*
X165080000Y-53300000D02*
X166443600Y-53300000D01*
X166443600Y-53300000D02*
X168343600Y-51400000D01*
X134604812Y-57604812D02*
X136100000Y-59100000D01*
X136100000Y-59100000D02*
X139850000Y-59100000D01*
X134604812Y-54800000D02*
X147200000Y-54800000D01*
X124249998Y-54800000D02*
X134604812Y-54800000D01*
X134604812Y-54800000D02*
X134604812Y-57604812D01*
X150700000Y-51300000D02*
X163232400Y-51300000D01*
X163232400Y-51300000D02*
X165080000Y-53147600D01*
X165080000Y-53147600D02*
X165080000Y-53300000D01*
X147200000Y-54800000D02*
X150700000Y-51300000D01*
X122500000Y-57900000D02*
X122500000Y-56549998D01*
X122500000Y-56549998D02*
X124249998Y-54800000D01*
X123600000Y-59000000D02*
X122500000Y-57900000D01*
X128350000Y-59000000D02*
X123600000Y-59000000D01*
D36*
X156800000Y-62750000D02*
X157050001Y-62499999D01*
X157050001Y-62499999D02*
X157000000Y-62550000D01*
D35*
X157500000Y-62050000D02*
X157050001Y-62499999D01*
X157500000Y-60750000D02*
X157500000Y-62050000D01*
D36*
X156276699Y-59526699D02*
X154920000Y-58170000D01*
X157000000Y-60250000D02*
X156276699Y-59526699D01*
D35*
X156276699Y-59526699D02*
X157500000Y-60750000D01*
D36*
X164210135Y-67210135D02*
X169750000Y-72750000D01*
X162917596Y-65917596D02*
X164210135Y-67210135D01*
D35*
X164210135Y-67210135D02*
X164035137Y-67210135D01*
X164035137Y-67210135D02*
X162825002Y-66000000D01*
D36*
X161000000Y-65116807D02*
X161000000Y-64164131D01*
X161000000Y-64164131D02*
X161000000Y-59150000D01*
D35*
X161000000Y-65000000D02*
X161000000Y-64164131D01*
X161000000Y-66000000D02*
X161000000Y-65000000D01*
X160750000Y-66250000D02*
X161000000Y-66000000D01*
X160750000Y-67750000D02*
X160750000Y-66250000D01*
D36*
X161000000Y-67850000D02*
X161000000Y-66434661D01*
X161000000Y-66434661D02*
X161000000Y-65904381D01*
X160500000Y-66500000D02*
X160934661Y-66500000D01*
X160934661Y-66500000D02*
X161000000Y-66434661D01*
X160500000Y-67850000D02*
X160500000Y-66500000D01*
D35*
X197000000Y-70790000D02*
X198186589Y-71976589D01*
X193500000Y-83050000D02*
X194650001Y-83049999D01*
X194650001Y-83049999D02*
X198250001Y-79449999D01*
X198250001Y-79449999D02*
X198250001Y-72040001D01*
X198250001Y-72040001D02*
X198186589Y-71976589D01*
X182448760Y-70250000D02*
X180000000Y-70250000D01*
X184948760Y-72750000D02*
X182448760Y-70250000D01*
X189500000Y-79000000D02*
X185000000Y-79000000D01*
X185000000Y-79000000D02*
X183500000Y-80500000D01*
X171000000Y-87250000D02*
X171000000Y-84750000D01*
X171000000Y-84750000D02*
X168500000Y-82250000D01*
X158281582Y-83168418D02*
X159776735Y-81673265D01*
X153450000Y-88000000D02*
X158281582Y-83168418D01*
X158281582Y-83168418D02*
X158168418Y-83168418D01*
X158168418Y-83168418D02*
X156500000Y-81500000D01*
X135500000Y-87500000D02*
X138500000Y-87500000D01*
X138500000Y-87500000D02*
X139000000Y-87000000D01*
X131000000Y-83250000D02*
X134750000Y-83250000D01*
X134750000Y-83250000D02*
X137500000Y-80500000D01*
X121500000Y-61250000D02*
X125519763Y-65269763D01*
X125519763Y-65269763D02*
X134980237Y-65269763D01*
X134980237Y-65269763D02*
X135000000Y-65250000D01*
X185449140Y-72750000D02*
X184948760Y-72750000D01*
X159776735Y-81673265D02*
X160750000Y-80700000D01*
X121500000Y-54100000D02*
X121500000Y-61250000D01*
X124825000Y-52050000D02*
X123550000Y-52050000D01*
X123550000Y-52050000D02*
X121500000Y-54100000D01*
X135250000Y-86000000D02*
X135300000Y-86000000D01*
X135300000Y-86000000D02*
X135500000Y-86200000D01*
X135500000Y-86200000D02*
X135500000Y-87500000D01*
X133800000Y-86000000D02*
X135250000Y-86000000D01*
X126349998Y-86000000D02*
X133800000Y-86000000D01*
X127000000Y-82200000D02*
X125849999Y-82200001D01*
X125849999Y-82200001D02*
X125849999Y-85500001D01*
X125849999Y-85500001D02*
X126349998Y-86000000D01*
D36*
X161013215Y-65917596D02*
X161000000Y-65904381D01*
X161000000Y-65904381D02*
X161000000Y-65116807D01*
X162917596Y-65917596D02*
X161013215Y-65917596D01*
X169750000Y-72750000D02*
X183898660Y-72750000D01*
X183898660Y-72750000D02*
X185449140Y-72750000D01*
X154920000Y-58170000D02*
X154920000Y-53300000D01*
X157000000Y-62550000D02*
X157000000Y-60250000D01*
X155900000Y-62750000D02*
X156800000Y-62750000D01*
X155000000Y-62750000D02*
X154500000Y-63250000D01*
X154500000Y-63250000D02*
X152250000Y-63250000D01*
X155900000Y-62750000D02*
X155000000Y-62750000D01*
D35*
X191250000Y-86250000D02*
X191250000Y-84150000D01*
X191250000Y-84150000D02*
X192350000Y-83050000D01*
X192350000Y-83050000D02*
X193500000Y-83050000D01*
X188750000Y-87250000D02*
X190250000Y-87250000D01*
X190250000Y-87250000D02*
X191250000Y-86250000D01*
D36*
X167750000Y-57750000D02*
X167750000Y-56500000D01*
X161500000Y-57750000D02*
X167750000Y-57750000D01*
X161000000Y-58250000D02*
X161500000Y-57750000D01*
X161000000Y-59150000D02*
X161000000Y-58250000D01*
X161000000Y-67850000D02*
X160850000Y-67850000D01*
X160850000Y-67850000D02*
X160750000Y-67750000D01*
X160500000Y-67850000D02*
X160650000Y-67850000D01*
X160650000Y-67850000D02*
X160750000Y-67750000D01*
D35*
X160750000Y-67750000D02*
X160750000Y-67500000D01*
X160750000Y-80700000D02*
X160750000Y-67750000D01*
X153250000Y-88000000D02*
X153450000Y-88000000D01*
X182750000Y-65500000D02*
X168264930Y-65500000D01*
D36*
X164600000Y-65750000D02*
X167366103Y-65750000D01*
X167366103Y-65750000D02*
X167491113Y-65624990D01*
X168139940Y-65624990D02*
X168264930Y-65500000D01*
X167491113Y-65624990D02*
X168139940Y-65624990D01*
D35*
X189500000Y-58750000D02*
X182750000Y-65500000D01*
D36*
X190221399Y-58028601D02*
X189500000Y-58750000D01*
X191460000Y-54000000D02*
X190221399Y-55238601D01*
X190221399Y-55238601D02*
X190221399Y-58028601D01*
X164600000Y-66250000D02*
X167750000Y-66250000D01*
D35*
X184500000Y-66250000D02*
X167750000Y-66250000D01*
X191460000Y-59290000D02*
X184500000Y-66250000D01*
X191460000Y-56540000D02*
X191460000Y-59290000D01*
D36*
X164600000Y-64250000D02*
X166750000Y-64250000D01*
X166750000Y-64250000D02*
X167000000Y-64000000D01*
D35*
X177000000Y-64000000D02*
X167000000Y-64000000D01*
X184250000Y-56750000D02*
X177000000Y-64000000D01*
D36*
X185761399Y-55238601D02*
X184250000Y-56750000D01*
X188920000Y-54000000D02*
X187681399Y-55238601D01*
X187681399Y-55238601D02*
X185761399Y-55238601D01*
X164600000Y-64750000D02*
X167750000Y-64750000D01*
D35*
X180710000Y-64750000D02*
X167750000Y-64750000D01*
X188920000Y-56540000D02*
X180710000Y-64750000D01*
X164265328Y-59409670D02*
X162750000Y-60924998D01*
X186380000Y-54000000D02*
X184286335Y-54000000D01*
X164265328Y-59409670D02*
X178876665Y-59409670D01*
X178876665Y-59409670D02*
X184286335Y-54000000D01*
D36*
X163000000Y-65250000D02*
X164600000Y-65250000D01*
X162750000Y-65000000D02*
X163000000Y-65250000D01*
D35*
X162750000Y-60924998D02*
X162750000Y-65000000D01*
D36*
X158000000Y-59150000D02*
X158000000Y-53840000D01*
X158000000Y-53840000D02*
X157460000Y-53300000D01*
X160000000Y-53300000D02*
X160000000Y-54566000D01*
X160000000Y-54566000D02*
X158500000Y-56066000D01*
X158500000Y-56066000D02*
X158500000Y-59150000D01*
D35*
X132500000Y-61750000D02*
X131050000Y-60300000D01*
X131050000Y-60300000D02*
X131050000Y-59000000D01*
X153250000Y-61750000D02*
X132500000Y-61750000D01*
X153750000Y-62250000D02*
X153250000Y-61750000D01*
X154500000Y-62250000D02*
X153750000Y-62250000D01*
D36*
X155900000Y-62250000D02*
X154500000Y-62250000D01*
D35*
X131050000Y-59000000D02*
X131150000Y-59000000D01*
X132775000Y-56550000D02*
X124825000Y-56550000D01*
X131050000Y-59000000D02*
X131050000Y-58275000D01*
X131050000Y-58275000D02*
X132775000Y-56550000D01*
D36*
X154250000Y-61500000D02*
X154374990Y-61624990D01*
X154374990Y-61624990D02*
X154758887Y-61624990D01*
X154758887Y-61624990D02*
X154883897Y-61750000D01*
X154883897Y-61750000D02*
X155900000Y-61750000D01*
D35*
X153750000Y-61000000D02*
X154250000Y-61500000D01*
X148850000Y-61000000D02*
X153750000Y-61000000D01*
X144275000Y-56550000D02*
X144400000Y-56550000D01*
X144400000Y-56550000D02*
X148850000Y-61000000D01*
X136325000Y-56550000D02*
X144275000Y-56550000D01*
X142550000Y-59100000D02*
X142550000Y-58275000D01*
X142550000Y-58275000D02*
X144275000Y-56550000D01*
X129650000Y-90300000D02*
X129650000Y-91450000D01*
X125850000Y-77200000D02*
X121499989Y-81550011D01*
X122239325Y-90300000D02*
X129650000Y-90300000D01*
X121499989Y-81550011D02*
X121499989Y-89560664D01*
X127000000Y-77200000D02*
X125850000Y-77200000D01*
X121499989Y-89560664D02*
X122239325Y-90300000D01*
X144499998Y-90000000D02*
X144898498Y-90000000D01*
X144898498Y-90000000D02*
X147000000Y-90000000D01*
X141750000Y-95600002D02*
X141750000Y-92749998D01*
X141750000Y-92749998D02*
X144499998Y-90000000D01*
X134300000Y-97250000D02*
X140100002Y-97250000D01*
X140100002Y-97250000D02*
X141750000Y-95600002D01*
X129650001Y-92600001D02*
X134300000Y-97250000D01*
X158500002Y-96750000D02*
X151700000Y-96750000D01*
X151700000Y-96750000D02*
X147550000Y-92600000D01*
X159500000Y-92874998D02*
X159500000Y-95750002D01*
X159500000Y-95750002D02*
X158500002Y-96750000D01*
X163964375Y-90000000D02*
X165025000Y-90000000D01*
X163964375Y-90000000D02*
X162374998Y-90000000D01*
X162374998Y-90000000D02*
X159500000Y-92874998D01*
X184350000Y-93750000D02*
X190450002Y-93750000D01*
X190450002Y-93750000D02*
X192250000Y-91950002D01*
X183250000Y-91500000D02*
X183250000Y-92650000D01*
X183250000Y-92650000D02*
X184350000Y-93750000D01*
X147000000Y-83250000D02*
X149819604Y-80430396D01*
X149819604Y-80430396D02*
X159250000Y-71000000D01*
X151000000Y-81900000D02*
X151000000Y-81800000D01*
X151000000Y-81800000D02*
X149819604Y-80619604D01*
X149819604Y-80619604D02*
X149819604Y-80430396D01*
X192250000Y-91950002D02*
X192250000Y-84400000D01*
X192350000Y-84300000D02*
X193500000Y-84300000D01*
X192250000Y-84400000D02*
X192350000Y-84300000D01*
X176224998Y-90000000D02*
X182900000Y-90000000D01*
X182900000Y-90000000D02*
X183250000Y-90350000D01*
X183250000Y-90350000D02*
X183250000Y-91500000D01*
X165475000Y-92750000D02*
X173474998Y-92750000D01*
X173474998Y-92750000D02*
X176224998Y-90000000D01*
X165375000Y-91500000D02*
X165375000Y-92650000D01*
X165375000Y-92650000D02*
X165475000Y-92750000D01*
X165025000Y-90000000D02*
X165375000Y-90350000D01*
X165375000Y-90350000D02*
X165375000Y-91500000D01*
X147550000Y-91450000D02*
X147550000Y-92600000D01*
X147000000Y-90000000D02*
X147250000Y-90000000D01*
X147250000Y-90000000D02*
X147550000Y-90300000D01*
X147550000Y-90300000D02*
X147550000Y-91450000D01*
X129650000Y-91450000D02*
X129650001Y-92600001D01*
D36*
X159250000Y-69500000D02*
X159000000Y-69250000D01*
D35*
X159250000Y-71000000D02*
X159250000Y-69500000D01*
X147000000Y-90000000D02*
X147000000Y-83250000D01*
D36*
X159000000Y-67850000D02*
X159000000Y-69250000D01*
D35*
X197985102Y-86385100D02*
X197150002Y-85550000D01*
X194774331Y-96225671D02*
X197501551Y-93498451D01*
X197985102Y-86385100D02*
X198250001Y-86649999D01*
X198250001Y-86649999D02*
X198250001Y-92750001D01*
X198250001Y-92750001D02*
X197501551Y-93498451D01*
X125850000Y-75950000D02*
X120499978Y-81300022D01*
X120499978Y-89810653D02*
X122139325Y-91450000D01*
X127000000Y-75950000D02*
X125850000Y-75950000D01*
X120499978Y-81300022D02*
X120499978Y-89810653D01*
X122139325Y-91450000D02*
X127500000Y-91450000D01*
X127500000Y-91450000D02*
X128400000Y-91450000D01*
X182000000Y-91500000D02*
X182000000Y-96000000D01*
X182000000Y-96000000D02*
X180000000Y-98000000D01*
X164125000Y-91500000D02*
X164125000Y-96875000D01*
X164125000Y-96875000D02*
X163000000Y-98000000D01*
X146300000Y-91450000D02*
X146300000Y-96450000D01*
X146300000Y-96450000D02*
X144750000Y-98000000D01*
X133800000Y-98000000D02*
X144750000Y-98000000D01*
X144750000Y-98000000D02*
X163000000Y-98000000D01*
X163000000Y-98000000D02*
X180000000Y-98000000D01*
X180000000Y-98000000D02*
X193000002Y-98000000D01*
X193000002Y-98000000D02*
X194774331Y-96225671D01*
X132800000Y-97000000D02*
X133800000Y-98000000D01*
X156500000Y-67250000D02*
X150049556Y-73700444D01*
X150049556Y-73700444D02*
X147800000Y-75950000D01*
X148750000Y-71600000D02*
X148750000Y-72850000D01*
X148750000Y-72850000D02*
X149600444Y-73700444D01*
X149600444Y-73700444D02*
X150049556Y-73700444D01*
X194650000Y-85550000D02*
X193500000Y-85550000D01*
X197150002Y-85550000D02*
X194650000Y-85550000D01*
X128400000Y-91450000D02*
X128400000Y-92600000D01*
X128400000Y-92600000D02*
X132800000Y-97000000D01*
X147800000Y-75950000D02*
X127000000Y-75950000D01*
D36*
X157000000Y-66750000D02*
X156500000Y-67250000D01*
X158300000Y-66750000D02*
X157000000Y-66750000D01*
X158500000Y-67850000D02*
X158500000Y-66950000D01*
X158500000Y-66950000D02*
X158300000Y-66750000D01*
D35*
X193250000Y-68750000D02*
X196500000Y-68750000D01*
X196500000Y-68750000D02*
X197000000Y-68250000D01*
X196251140Y-61750000D02*
X196251140Y-67501140D01*
X196251140Y-67501140D02*
X197000000Y-68250000D01*
X142787037Y-85562963D02*
X158000000Y-70350000D01*
X137150000Y-91450000D02*
X138050000Y-91450000D01*
X138050000Y-91450000D02*
X142787037Y-86712963D01*
X142787037Y-86712963D02*
X142787037Y-85562963D01*
D36*
X158000000Y-69500000D02*
X158000000Y-67850000D01*
D35*
X158000000Y-70350000D02*
X158000000Y-69500000D01*
D36*
X161500000Y-70000000D02*
X161500000Y-67850000D01*
D35*
X161500000Y-84750000D02*
X161500000Y-70000000D01*
X155050000Y-91450000D02*
X155050000Y-91200000D01*
X155050000Y-91200000D02*
X161500000Y-84750000D01*
X172875000Y-91500000D02*
X172875000Y-80435674D01*
X172875000Y-80435674D02*
X169500000Y-77060674D01*
X169500000Y-77060674D02*
X169000000Y-76560674D01*
D36*
X162000000Y-67850000D02*
X162000000Y-69560674D01*
X162000000Y-69560674D02*
X162219663Y-69780337D01*
D35*
X169000000Y-76560674D02*
X162219663Y-69780337D01*
X184850000Y-93000000D02*
X189950002Y-93000000D01*
X189950002Y-93000000D02*
X190750000Y-92200002D01*
X190750000Y-92200002D02*
X190750000Y-91500000D01*
X184500000Y-91500000D02*
X184500000Y-92650000D01*
X184500000Y-92650000D02*
X184850000Y-93000000D01*
X182250000Y-87750000D02*
X184500000Y-90000000D01*
X184500000Y-90000000D02*
X184500000Y-91500000D01*
X182250000Y-84750000D02*
X182250000Y-87750000D01*
X175250000Y-77750000D02*
X182250000Y-84750000D01*
X174722790Y-77750000D02*
X171250000Y-77750000D01*
X174722790Y-77750000D02*
X175250000Y-77750000D01*
D36*
X162500000Y-67850000D02*
X162500000Y-69000000D01*
X162500000Y-69000000D02*
X162750000Y-69250000D01*
D35*
X171250000Y-77750000D02*
X162750000Y-69250000D01*
X171900000Y-76750000D02*
X163395232Y-68245232D01*
X163395232Y-68245232D02*
X163125010Y-67975010D01*
D36*
X163000000Y-67850000D02*
X163395232Y-68245232D01*
D35*
X192300000Y-76750000D02*
X171900000Y-76750000D01*
X193500000Y-76800000D02*
X192350000Y-76800000D01*
X192350000Y-76800000D02*
X192300000Y-76750000D01*
D36*
X157250000Y-69500000D02*
X157374990Y-69375010D01*
X157374990Y-69375010D02*
X157374990Y-69241113D01*
X157374990Y-69241113D02*
X157500000Y-69116103D01*
X157500000Y-69116103D02*
X157500000Y-67850000D01*
D35*
X141999999Y-84750001D02*
X157250000Y-69500000D01*
X127000000Y-84700000D02*
X128150000Y-84700000D01*
X128150000Y-84700000D02*
X128200001Y-84750001D01*
X128200001Y-84750001D02*
X141999999Y-84750001D01*
D37*
G36*
X128200001Y-85635002D02*
X128200006Y-85635001D01*
X141902037Y-85635001D01*
X141902037Y-86346384D01*
X137946229Y-90302191D01*
X137801890Y-90203569D01*
X137550000Y-90152560D01*
X136750000Y-90152560D01*
X136516740Y-90196451D01*
X136300000Y-90152560D01*
X135500000Y-90152560D01*
X135264683Y-90196838D01*
X135260175Y-90199739D01*
X135176309Y-90165000D01*
X134935750Y-90165000D01*
X134777000Y-90323750D01*
X134777000Y-91323000D01*
X134797000Y-91323000D01*
X134797000Y-91577000D01*
X134777000Y-91577000D01*
X134777000Y-92576250D01*
X134935750Y-92735000D01*
X135176309Y-92735000D01*
X135262424Y-92699330D01*
X135500000Y-92747440D01*
X136300000Y-92747440D01*
X136533260Y-92703549D01*
X136750000Y-92747440D01*
X137550000Y-92747440D01*
X137785317Y-92703162D01*
X138001441Y-92564090D01*
X138042147Y-92504515D01*
X138002560Y-92700000D01*
X138002560Y-95700000D01*
X138046838Y-95935317D01*
X138185910Y-96151441D01*
X138398110Y-96296431D01*
X138650000Y-96347440D01*
X139750982Y-96347440D01*
X139733422Y-96365000D01*
X134666579Y-96365000D01*
X132183730Y-93882150D01*
X132461326Y-94067633D01*
X132800000Y-94135001D01*
X133138675Y-94067633D01*
X133425790Y-93875790D01*
X133617633Y-93588675D01*
X133685001Y-93250000D01*
X133617633Y-92911326D01*
X133508129Y-92747440D01*
X133800000Y-92747440D01*
X134035317Y-92703162D01*
X134039825Y-92700261D01*
X134123691Y-92735000D01*
X134364250Y-92735000D01*
X134523000Y-92576250D01*
X134523000Y-91577000D01*
X134503000Y-91577000D01*
X134503000Y-91323000D01*
X134523000Y-91323000D01*
X134523000Y-90323750D01*
X134364250Y-90165000D01*
X134123691Y-90165000D01*
X134037576Y-90200670D01*
X133800000Y-90152560D01*
X133035000Y-90152560D01*
X133035000Y-88641797D01*
X133096431Y-88551890D01*
X133147440Y-88300000D01*
X133147440Y-87785750D01*
X133865000Y-87785750D01*
X133865000Y-88426310D01*
X133961673Y-88659699D01*
X134140302Y-88838327D01*
X134373691Y-88935000D01*
X135214250Y-88935000D01*
X135373000Y-88776250D01*
X135373000Y-87627000D01*
X135627000Y-87627000D01*
X135627000Y-88776250D01*
X135785750Y-88935000D01*
X136626309Y-88935000D01*
X136859698Y-88838327D01*
X137038327Y-88659699D01*
X137135000Y-88426310D01*
X137135000Y-87785750D01*
X136976250Y-87627000D01*
X135627000Y-87627000D01*
X135373000Y-87627000D01*
X134023750Y-87627000D01*
X133865000Y-87785750D01*
X133147440Y-87785750D01*
X133147440Y-86700000D01*
X133123674Y-86573690D01*
X133865000Y-86573690D01*
X133865000Y-87214250D01*
X134023750Y-87373000D01*
X135373000Y-87373000D01*
X135373000Y-86223750D01*
X135627000Y-86223750D01*
X135627000Y-87373000D01*
X136976250Y-87373000D01*
X137135000Y-87214250D01*
X137135000Y-86573690D01*
X137038327Y-86340301D01*
X136859698Y-86161673D01*
X136626309Y-86065000D01*
X135785750Y-86065000D01*
X135627000Y-86223750D01*
X135373000Y-86223750D01*
X135214250Y-86065000D01*
X134373691Y-86065000D01*
X134140302Y-86161673D01*
X133961673Y-86340301D01*
X133865000Y-86573690D01*
X133123674Y-86573690D01*
X133103162Y-86464683D01*
X132964090Y-86248559D01*
X132751890Y-86103569D01*
X132500000Y-86052560D01*
X130500000Y-86052560D01*
X130264683Y-86096838D01*
X130048559Y-86235910D01*
X129903569Y-86448110D01*
X129864307Y-86641991D01*
X129717516Y-86671190D01*
X129661325Y-86682367D01*
X129374210Y-86874210D01*
X129374208Y-86874213D01*
X127883420Y-88365000D01*
X126384277Y-88365000D01*
X126397440Y-88300000D01*
X126397440Y-86200000D01*
X126353162Y-85964683D01*
X126214090Y-85748559D01*
X126154515Y-85707853D01*
X126350000Y-85747440D01*
X127650000Y-85747440D01*
X127885317Y-85703162D01*
X128040535Y-85603282D01*
X128200001Y-85635002D01*
X128200001Y-85635002D01*
G37*
X128200001Y-85635002D02*
X128200006Y-85635001D01*
X141902037Y-85635001D01*
X141902037Y-86346384D01*
X137946229Y-90302191D01*
X137801890Y-90203569D01*
X137550000Y-90152560D01*
X136750000Y-90152560D01*
X136516740Y-90196451D01*
X136300000Y-90152560D01*
X135500000Y-90152560D01*
X135264683Y-90196838D01*
X135260175Y-90199739D01*
X135176309Y-90165000D01*
X134935750Y-90165000D01*
X134777000Y-90323750D01*
X134777000Y-91323000D01*
X134797000Y-91323000D01*
X134797000Y-91577000D01*
X134777000Y-91577000D01*
X134777000Y-92576250D01*
X134935750Y-92735000D01*
X135176309Y-92735000D01*
X135262424Y-92699330D01*
X135500000Y-92747440D01*
X136300000Y-92747440D01*
X136533260Y-92703549D01*
X136750000Y-92747440D01*
X137550000Y-92747440D01*
X137785317Y-92703162D01*
X138001441Y-92564090D01*
X138042147Y-92504515D01*
X138002560Y-92700000D01*
X138002560Y-95700000D01*
X138046838Y-95935317D01*
X138185910Y-96151441D01*
X138398110Y-96296431D01*
X138650000Y-96347440D01*
X139750982Y-96347440D01*
X139733422Y-96365000D01*
X134666579Y-96365000D01*
X132183730Y-93882150D01*
X132461326Y-94067633D01*
X132800000Y-94135001D01*
X133138675Y-94067633D01*
X133425790Y-93875790D01*
X133617633Y-93588675D01*
X133685001Y-93250000D01*
X133617633Y-92911326D01*
X133508129Y-92747440D01*
X133800000Y-92747440D01*
X134035317Y-92703162D01*
X134039825Y-92700261D01*
X134123691Y-92735000D01*
X134364250Y-92735000D01*
X134523000Y-92576250D01*
X134523000Y-91577000D01*
X134503000Y-91577000D01*
X134503000Y-91323000D01*
X134523000Y-91323000D01*
X134523000Y-90323750D01*
X134364250Y-90165000D01*
X134123691Y-90165000D01*
X134037576Y-90200670D01*
X133800000Y-90152560D01*
X133035000Y-90152560D01*
X133035000Y-88641797D01*
X133096431Y-88551890D01*
X133147440Y-88300000D01*
X133147440Y-87785750D01*
X133865000Y-87785750D01*
X133865000Y-88426310D01*
X133961673Y-88659699D01*
X134140302Y-88838327D01*
X134373691Y-88935000D01*
X135214250Y-88935000D01*
X135373000Y-88776250D01*
X135373000Y-87627000D01*
X135627000Y-87627000D01*
X135627000Y-88776250D01*
X135785750Y-88935000D01*
X136626309Y-88935000D01*
X136859698Y-88838327D01*
X137038327Y-88659699D01*
X137135000Y-88426310D01*
X137135000Y-87785750D01*
X136976250Y-87627000D01*
X135627000Y-87627000D01*
X135373000Y-87627000D01*
X134023750Y-87627000D01*
X133865000Y-87785750D01*
X133147440Y-87785750D01*
X133147440Y-86700000D01*
X133123674Y-86573690D01*
X133865000Y-86573690D01*
X133865000Y-87214250D01*
X134023750Y-87373000D01*
X135373000Y-87373000D01*
X135373000Y-86223750D01*
X135627000Y-86223750D01*
X135627000Y-87373000D01*
X136976250Y-87373000D01*
X137135000Y-87214250D01*
X137135000Y-86573690D01*
X137038327Y-86340301D01*
X136859698Y-86161673D01*
X136626309Y-86065000D01*
X135785750Y-86065000D01*
X135627000Y-86223750D01*
X135373000Y-86223750D01*
X135214250Y-86065000D01*
X134373691Y-86065000D01*
X134140302Y-86161673D01*
X133961673Y-86340301D01*
X133865000Y-86573690D01*
X133123674Y-86573690D01*
X133103162Y-86464683D01*
X132964090Y-86248559D01*
X132751890Y-86103569D01*
X132500000Y-86052560D01*
X130500000Y-86052560D01*
X130264683Y-86096838D01*
X130048559Y-86235910D01*
X129903569Y-86448110D01*
X129864307Y-86641991D01*
X129717516Y-86671190D01*
X129661325Y-86682367D01*
X129374210Y-86874210D01*
X129374208Y-86874213D01*
X127883420Y-88365000D01*
X126384277Y-88365000D01*
X126397440Y-88300000D01*
X126397440Y-86200000D01*
X126353162Y-85964683D01*
X126214090Y-85748559D01*
X126154515Y-85707853D01*
X126350000Y-85747440D01*
X127650000Y-85747440D01*
X127885317Y-85703162D01*
X128040535Y-85603282D01*
X128200001Y-85635002D01*
G36*
X168374208Y-77186461D02*
X168374210Y-77186464D01*
X168874208Y-77686461D01*
X168874210Y-77686464D01*
X171990000Y-80802253D01*
X171990000Y-85815000D01*
X171285750Y-85815000D01*
X171127000Y-85973750D01*
X171127000Y-87123000D01*
X171147000Y-87123000D01*
X171147000Y-87377000D01*
X171127000Y-87377000D01*
X171127000Y-88526250D01*
X171285750Y-88685000D01*
X171990000Y-88685000D01*
X171990000Y-90202560D01*
X171225000Y-90202560D01*
X170989683Y-90246838D01*
X170985175Y-90249739D01*
X170901309Y-90215000D01*
X170660750Y-90215000D01*
X170502000Y-90373750D01*
X170502000Y-91373000D01*
X170522000Y-91373000D01*
X170522000Y-91627000D01*
X170502000Y-91627000D01*
X170502000Y-91647000D01*
X170248000Y-91647000D01*
X170248000Y-91627000D01*
X170228000Y-91627000D01*
X170228000Y-91373000D01*
X170248000Y-91373000D01*
X170248000Y-90373750D01*
X170089250Y-90215000D01*
X169848691Y-90215000D01*
X169762576Y-90250670D01*
X169525000Y-90202560D01*
X168760000Y-90202560D01*
X168760000Y-88125005D01*
X168760001Y-88125000D01*
X168692633Y-87786326D01*
X168692633Y-87786325D01*
X168647440Y-87718689D01*
X168647440Y-87535750D01*
X169365000Y-87535750D01*
X169365000Y-88176310D01*
X169461673Y-88409699D01*
X169640302Y-88588327D01*
X169873691Y-88685000D01*
X170714250Y-88685000D01*
X170873000Y-88526250D01*
X170873000Y-87377000D01*
X169523750Y-87377000D01*
X169365000Y-87535750D01*
X168647440Y-87535750D01*
X168647440Y-86450000D01*
X168623674Y-86323690D01*
X169365000Y-86323690D01*
X169365000Y-86964250D01*
X169523750Y-87123000D01*
X170873000Y-87123000D01*
X170873000Y-85973750D01*
X170714250Y-85815000D01*
X169873691Y-85815000D01*
X169640302Y-85911673D01*
X169461673Y-86090301D01*
X169365000Y-86323690D01*
X168623674Y-86323690D01*
X168603162Y-86214683D01*
X168464090Y-85998559D01*
X168251890Y-85853569D01*
X168000000Y-85802560D01*
X166000000Y-85802560D01*
X165764683Y-85846838D01*
X165548559Y-85985910D01*
X165403569Y-86198110D01*
X165369773Y-86365000D01*
X161150005Y-86365000D01*
X161150000Y-86364999D01*
X161133248Y-86368331D01*
X162125787Y-85375792D01*
X162125790Y-85375790D01*
X162317633Y-85088675D01*
X162385000Y-84750000D01*
X162385000Y-71197254D01*
X168374208Y-77186461D01*
X168374208Y-77186461D01*
G37*
X168374208Y-77186461D02*
X168374210Y-77186464D01*
X168874208Y-77686461D01*
X168874210Y-77686464D01*
X171990000Y-80802253D01*
X171990000Y-85815000D01*
X171285750Y-85815000D01*
X171127000Y-85973750D01*
X171127000Y-87123000D01*
X171147000Y-87123000D01*
X171147000Y-87377000D01*
X171127000Y-87377000D01*
X171127000Y-88526250D01*
X171285750Y-88685000D01*
X171990000Y-88685000D01*
X171990000Y-90202560D01*
X171225000Y-90202560D01*
X170989683Y-90246838D01*
X170985175Y-90249739D01*
X170901309Y-90215000D01*
X170660750Y-90215000D01*
X170502000Y-90373750D01*
X170502000Y-91373000D01*
X170522000Y-91373000D01*
X170522000Y-91627000D01*
X170502000Y-91627000D01*
X170502000Y-91647000D01*
X170248000Y-91647000D01*
X170248000Y-91627000D01*
X170228000Y-91627000D01*
X170228000Y-91373000D01*
X170248000Y-91373000D01*
X170248000Y-90373750D01*
X170089250Y-90215000D01*
X169848691Y-90215000D01*
X169762576Y-90250670D01*
X169525000Y-90202560D01*
X168760000Y-90202560D01*
X168760000Y-88125005D01*
X168760001Y-88125000D01*
X168692633Y-87786326D01*
X168692633Y-87786325D01*
X168647440Y-87718689D01*
X168647440Y-87535750D01*
X169365000Y-87535750D01*
X169365000Y-88176310D01*
X169461673Y-88409699D01*
X169640302Y-88588327D01*
X169873691Y-88685000D01*
X170714250Y-88685000D01*
X170873000Y-88526250D01*
X170873000Y-87377000D01*
X169523750Y-87377000D01*
X169365000Y-87535750D01*
X168647440Y-87535750D01*
X168647440Y-86450000D01*
X168623674Y-86323690D01*
X169365000Y-86323690D01*
X169365000Y-86964250D01*
X169523750Y-87123000D01*
X170873000Y-87123000D01*
X170873000Y-85973750D01*
X170714250Y-85815000D01*
X169873691Y-85815000D01*
X169640302Y-85911673D01*
X169461673Y-86090301D01*
X169365000Y-86323690D01*
X168623674Y-86323690D01*
X168603162Y-86214683D01*
X168464090Y-85998559D01*
X168251890Y-85853569D01*
X168000000Y-85802560D01*
X166000000Y-85802560D01*
X165764683Y-85846838D01*
X165548559Y-85985910D01*
X165403569Y-86198110D01*
X165369773Y-86365000D01*
X161150005Y-86365000D01*
X161150000Y-86364999D01*
X161133248Y-86368331D01*
X162125787Y-85375792D01*
X162125790Y-85375790D01*
X162317633Y-85088675D01*
X162385000Y-84750000D01*
X162385000Y-71197254D01*
X168374208Y-77186461D01*
G36*
X198790000Y-58019340D02*
X198788327Y-58015301D01*
X198609698Y-57836673D01*
X198376309Y-57740000D01*
X197785750Y-57740000D01*
X197627000Y-57898750D01*
X197627000Y-58873000D01*
X197647000Y-58873000D01*
X197647000Y-59127000D01*
X197627000Y-59127000D01*
X197627000Y-60101250D01*
X197785750Y-60260000D01*
X198376309Y-60260000D01*
X198609698Y-60163327D01*
X198788327Y-59984699D01*
X198790000Y-59980660D01*
X198790000Y-85938419D01*
X198610892Y-85759310D01*
X198610889Y-85759308D01*
X197775792Y-84924210D01*
X197717110Y-84885000D01*
X197488677Y-84732367D01*
X197432486Y-84721190D01*
X197150002Y-84664999D01*
X197149997Y-84665000D01*
X194797440Y-84665000D01*
X194797440Y-83900000D01*
X194753162Y-83664683D01*
X194750261Y-83660175D01*
X194785000Y-83576309D01*
X194785000Y-83335750D01*
X194626250Y-83177000D01*
X193627000Y-83177000D01*
X193627000Y-83197000D01*
X193373000Y-83197000D01*
X193373000Y-83177000D01*
X192373750Y-83177000D01*
X192215000Y-83335750D01*
X192215000Y-83441853D01*
X192011325Y-83482367D01*
X191724210Y-83674210D01*
X191724208Y-83674213D01*
X191624210Y-83774210D01*
X191432367Y-84061325D01*
X191432367Y-84061326D01*
X191364999Y-84400000D01*
X191365000Y-84400005D01*
X191365000Y-90246099D01*
X191150000Y-90202560D01*
X190350000Y-90202560D01*
X190116740Y-90246451D01*
X189900000Y-90202560D01*
X189100000Y-90202560D01*
X188864683Y-90246838D01*
X188860175Y-90249739D01*
X188776309Y-90215000D01*
X188535750Y-90215000D01*
X188377000Y-90373750D01*
X188377000Y-91373000D01*
X188397000Y-91373000D01*
X188397000Y-91627000D01*
X188377000Y-91627000D01*
X188377000Y-91647000D01*
X188123000Y-91647000D01*
X188123000Y-91627000D01*
X188103000Y-91627000D01*
X188103000Y-91373000D01*
X188123000Y-91373000D01*
X188123000Y-90373750D01*
X187964250Y-90215000D01*
X187723691Y-90215000D01*
X187637576Y-90250670D01*
X187400000Y-90202560D01*
X186635000Y-90202560D01*
X186635000Y-88250005D01*
X186635001Y-88250000D01*
X186567634Y-87911326D01*
X186483727Y-87785750D01*
X186397440Y-87656612D01*
X186397440Y-87535750D01*
X187115000Y-87535750D01*
X187115000Y-88176310D01*
X187211673Y-88409699D01*
X187390302Y-88588327D01*
X187623691Y-88685000D01*
X188464250Y-88685000D01*
X188623000Y-88526250D01*
X188623000Y-87377000D01*
X188877000Y-87377000D01*
X188877000Y-88526250D01*
X189035750Y-88685000D01*
X189876309Y-88685000D01*
X190109698Y-88588327D01*
X190288327Y-88409699D01*
X190385000Y-88176310D01*
X190385000Y-87535750D01*
X190226250Y-87377000D01*
X188877000Y-87377000D01*
X188623000Y-87377000D01*
X187273750Y-87377000D01*
X187115000Y-87535750D01*
X186397440Y-87535750D01*
X186397440Y-86854140D01*
X186927889Y-86323690D01*
X187115000Y-86323690D01*
X187115000Y-86964250D01*
X187273750Y-87123000D01*
X188623000Y-87123000D01*
X188623000Y-85973750D01*
X188877000Y-85973750D01*
X188877000Y-87123000D01*
X190226250Y-87123000D01*
X190385000Y-86964250D01*
X190385000Y-86323690D01*
X190288327Y-86090301D01*
X190109698Y-85911673D01*
X189876309Y-85815000D01*
X189035750Y-85815000D01*
X188877000Y-85973750D01*
X188623000Y-85973750D01*
X188464250Y-85815000D01*
X187623691Y-85815000D01*
X187390302Y-85911673D01*
X187211673Y-86090301D01*
X187115000Y-86323690D01*
X186927889Y-86323690D01*
X188620282Y-84631297D01*
X188700000Y-84647440D01*
X190300000Y-84647440D01*
X190535317Y-84603162D01*
X190751441Y-84464090D01*
X190896431Y-84251890D01*
X190947440Y-84000000D01*
X190947440Y-82804139D01*
X191066579Y-82685000D01*
X192215000Y-82685000D01*
X192215000Y-82764250D01*
X192373750Y-82923000D01*
X193373000Y-82923000D01*
X193373000Y-82903000D01*
X193627000Y-82903000D01*
X193627000Y-82923000D01*
X194626250Y-82923000D01*
X194785000Y-82764250D01*
X194785000Y-82658146D01*
X194988677Y-82617632D01*
X195180520Y-82489447D01*
X195275791Y-82425789D01*
X195467634Y-82138674D01*
X195535001Y-81799999D01*
X195535001Y-76000004D01*
X195535002Y-75999999D01*
X195524547Y-75947440D01*
X197750000Y-75947440D01*
X197985317Y-75903162D01*
X198201441Y-75764090D01*
X198346431Y-75551890D01*
X198397440Y-75300000D01*
X198397440Y-73200000D01*
X198353162Y-72964683D01*
X198214090Y-72748559D01*
X198001890Y-72603569D01*
X197750000Y-72552560D01*
X194750000Y-72552560D01*
X194514683Y-72596838D01*
X194298559Y-72735910D01*
X194153569Y-72948110D01*
X194102560Y-73200000D01*
X194102560Y-74200979D01*
X192025792Y-72124210D01*
X191888338Y-72032367D01*
X191738677Y-71932367D01*
X191682486Y-71921190D01*
X191635886Y-71911920D01*
X191817633Y-71639915D01*
X191832011Y-71567633D01*
X191885001Y-71301240D01*
X191885000Y-71301235D01*
X191885000Y-71172944D01*
X195394025Y-71172944D01*
X195593615Y-71654818D01*
X196031621Y-72127188D01*
X196617054Y-72395983D01*
X196873000Y-72277367D01*
X196873000Y-70917000D01*
X197127000Y-70917000D01*
X197127000Y-72277367D01*
X197382946Y-72395983D01*
X197968379Y-72127188D01*
X198406385Y-71654818D01*
X198605975Y-71172944D01*
X198486836Y-70917000D01*
X197127000Y-70917000D01*
X196873000Y-70917000D01*
X195513164Y-70917000D01*
X195394025Y-71172944D01*
X191885000Y-71172944D01*
X191885000Y-70069146D01*
X191998110Y-70146431D01*
X192250000Y-70197440D01*
X194250000Y-70197440D01*
X194485317Y-70153162D01*
X194701441Y-70014090D01*
X194846431Y-69801890D01*
X194880227Y-69635000D01*
X195466861Y-69635000D01*
X195519910Y-69717441D01*
X195682948Y-69828840D01*
X195593615Y-69925182D01*
X195394025Y-70407056D01*
X195513164Y-70663000D01*
X196873000Y-70663000D01*
X196873000Y-70643000D01*
X197127000Y-70643000D01*
X197127000Y-70663000D01*
X198486836Y-70663000D01*
X198605975Y-70407056D01*
X198406385Y-69925182D01*
X198315903Y-69827602D01*
X198467441Y-69730090D01*
X198612431Y-69517890D01*
X198663440Y-69266000D01*
X198663440Y-67234000D01*
X198619162Y-66998683D01*
X198480090Y-66782559D01*
X198267890Y-66637569D01*
X198016000Y-66586560D01*
X197136140Y-66586560D01*
X197136140Y-62797490D01*
X197151570Y-62797490D01*
X197386887Y-62753212D01*
X197603011Y-62614140D01*
X197748001Y-62401940D01*
X197799010Y-62150050D01*
X197799010Y-61349950D01*
X197754732Y-61114633D01*
X197615660Y-60898509D01*
X197403460Y-60753519D01*
X197151570Y-60702510D01*
X195735709Y-60702510D01*
X195735709Y-60586284D01*
X195817633Y-60463675D01*
X195859781Y-60251783D01*
X195985317Y-60228162D01*
X196201441Y-60089090D01*
X196247969Y-60020994D01*
X196390302Y-60163327D01*
X196623691Y-60260000D01*
X197214250Y-60260000D01*
X197373000Y-60101250D01*
X197373000Y-59127000D01*
X197353000Y-59127000D01*
X197353000Y-58873000D01*
X197373000Y-58873000D01*
X197373000Y-57898750D01*
X197214250Y-57740000D01*
X197111579Y-57740000D01*
X197325787Y-57525792D01*
X197325790Y-57525790D01*
X197485076Y-57287401D01*
X197517634Y-57238674D01*
X197585001Y-56900000D01*
X197585000Y-56899995D01*
X197585000Y-52900000D01*
X197517633Y-52561325D01*
X197325790Y-52274210D01*
X197325787Y-52274208D01*
X195825790Y-50774210D01*
X195729692Y-50710000D01*
X198790000Y-50710000D01*
X198790000Y-58019340D01*
X198790000Y-58019340D01*
G37*
X198790000Y-58019340D02*
X198788327Y-58015301D01*
X198609698Y-57836673D01*
X198376309Y-57740000D01*
X197785750Y-57740000D01*
X197627000Y-57898750D01*
X197627000Y-58873000D01*
X197647000Y-58873000D01*
X197647000Y-59127000D01*
X197627000Y-59127000D01*
X197627000Y-60101250D01*
X197785750Y-60260000D01*
X198376309Y-60260000D01*
X198609698Y-60163327D01*
X198788327Y-59984699D01*
X198790000Y-59980660D01*
X198790000Y-85938419D01*
X198610892Y-85759310D01*
X198610889Y-85759308D01*
X197775792Y-84924210D01*
X197717110Y-84885000D01*
X197488677Y-84732367D01*
X197432486Y-84721190D01*
X197150002Y-84664999D01*
X197149997Y-84665000D01*
X194797440Y-84665000D01*
X194797440Y-83900000D01*
X194753162Y-83664683D01*
X194750261Y-83660175D01*
X194785000Y-83576309D01*
X194785000Y-83335750D01*
X194626250Y-83177000D01*
X193627000Y-83177000D01*
X193627000Y-83197000D01*
X193373000Y-83197000D01*
X193373000Y-83177000D01*
X192373750Y-83177000D01*
X192215000Y-83335750D01*
X192215000Y-83441853D01*
X192011325Y-83482367D01*
X191724210Y-83674210D01*
X191724208Y-83674213D01*
X191624210Y-83774210D01*
X191432367Y-84061325D01*
X191432367Y-84061326D01*
X191364999Y-84400000D01*
X191365000Y-84400005D01*
X191365000Y-90246099D01*
X191150000Y-90202560D01*
X190350000Y-90202560D01*
X190116740Y-90246451D01*
X189900000Y-90202560D01*
X189100000Y-90202560D01*
X188864683Y-90246838D01*
X188860175Y-90249739D01*
X188776309Y-90215000D01*
X188535750Y-90215000D01*
X188377000Y-90373750D01*
X188377000Y-91373000D01*
X188397000Y-91373000D01*
X188397000Y-91627000D01*
X188377000Y-91627000D01*
X188377000Y-91647000D01*
X188123000Y-91647000D01*
X188123000Y-91627000D01*
X188103000Y-91627000D01*
X188103000Y-91373000D01*
X188123000Y-91373000D01*
X188123000Y-90373750D01*
X187964250Y-90215000D01*
X187723691Y-90215000D01*
X187637576Y-90250670D01*
X187400000Y-90202560D01*
X186635000Y-90202560D01*
X186635000Y-88250005D01*
X186635001Y-88250000D01*
X186567634Y-87911326D01*
X186483727Y-87785750D01*
X186397440Y-87656612D01*
X186397440Y-87535750D01*
X187115000Y-87535750D01*
X187115000Y-88176310D01*
X187211673Y-88409699D01*
X187390302Y-88588327D01*
X187623691Y-88685000D01*
X188464250Y-88685000D01*
X188623000Y-88526250D01*
X188623000Y-87377000D01*
X188877000Y-87377000D01*
X188877000Y-88526250D01*
X189035750Y-88685000D01*
X189876309Y-88685000D01*
X190109698Y-88588327D01*
X190288327Y-88409699D01*
X190385000Y-88176310D01*
X190385000Y-87535750D01*
X190226250Y-87377000D01*
X188877000Y-87377000D01*
X188623000Y-87377000D01*
X187273750Y-87377000D01*
X187115000Y-87535750D01*
X186397440Y-87535750D01*
X186397440Y-86854140D01*
X186927889Y-86323690D01*
X187115000Y-86323690D01*
X187115000Y-86964250D01*
X187273750Y-87123000D01*
X188623000Y-87123000D01*
X188623000Y-85973750D01*
X188877000Y-85973750D01*
X188877000Y-87123000D01*
X190226250Y-87123000D01*
X190385000Y-86964250D01*
X190385000Y-86323690D01*
X190288327Y-86090301D01*
X190109698Y-85911673D01*
X189876309Y-85815000D01*
X189035750Y-85815000D01*
X188877000Y-85973750D01*
X188623000Y-85973750D01*
X188464250Y-85815000D01*
X187623691Y-85815000D01*
X187390302Y-85911673D01*
X187211673Y-86090301D01*
X187115000Y-86323690D01*
X186927889Y-86323690D01*
X188620282Y-84631297D01*
X188700000Y-84647440D01*
X190300000Y-84647440D01*
X190535317Y-84603162D01*
X190751441Y-84464090D01*
X190896431Y-84251890D01*
X190947440Y-84000000D01*
X190947440Y-82804139D01*
X191066579Y-82685000D01*
X192215000Y-82685000D01*
X192215000Y-82764250D01*
X192373750Y-82923000D01*
X193373000Y-82923000D01*
X193373000Y-82903000D01*
X193627000Y-82903000D01*
X193627000Y-82923000D01*
X194626250Y-82923000D01*
X194785000Y-82764250D01*
X194785000Y-82658146D01*
X194988677Y-82617632D01*
X195180520Y-82489447D01*
X195275791Y-82425789D01*
X195467634Y-82138674D01*
X195535001Y-81799999D01*
X195535001Y-76000004D01*
X195535002Y-75999999D01*
X195524547Y-75947440D01*
X197750000Y-75947440D01*
X197985317Y-75903162D01*
X198201441Y-75764090D01*
X198346431Y-75551890D01*
X198397440Y-75300000D01*
X198397440Y-73200000D01*
X198353162Y-72964683D01*
X198214090Y-72748559D01*
X198001890Y-72603569D01*
X197750000Y-72552560D01*
X194750000Y-72552560D01*
X194514683Y-72596838D01*
X194298559Y-72735910D01*
X194153569Y-72948110D01*
X194102560Y-73200000D01*
X194102560Y-74200979D01*
X192025792Y-72124210D01*
X191888338Y-72032367D01*
X191738677Y-71932367D01*
X191682486Y-71921190D01*
X191635886Y-71911920D01*
X191817633Y-71639915D01*
X191832011Y-71567633D01*
X191885001Y-71301240D01*
X191885000Y-71301235D01*
X191885000Y-71172944D01*
X195394025Y-71172944D01*
X195593615Y-71654818D01*
X196031621Y-72127188D01*
X196617054Y-72395983D01*
X196873000Y-72277367D01*
X196873000Y-70917000D01*
X197127000Y-70917000D01*
X197127000Y-72277367D01*
X197382946Y-72395983D01*
X197968379Y-72127188D01*
X198406385Y-71654818D01*
X198605975Y-71172944D01*
X198486836Y-70917000D01*
X197127000Y-70917000D01*
X196873000Y-70917000D01*
X195513164Y-70917000D01*
X195394025Y-71172944D01*
X191885000Y-71172944D01*
X191885000Y-70069146D01*
X191998110Y-70146431D01*
X192250000Y-70197440D01*
X194250000Y-70197440D01*
X194485317Y-70153162D01*
X194701441Y-70014090D01*
X194846431Y-69801890D01*
X194880227Y-69635000D01*
X195466861Y-69635000D01*
X195519910Y-69717441D01*
X195682948Y-69828840D01*
X195593615Y-69925182D01*
X195394025Y-70407056D01*
X195513164Y-70663000D01*
X196873000Y-70663000D01*
X196873000Y-70643000D01*
X197127000Y-70643000D01*
X197127000Y-70663000D01*
X198486836Y-70663000D01*
X198605975Y-70407056D01*
X198406385Y-69925182D01*
X198315903Y-69827602D01*
X198467441Y-69730090D01*
X198612431Y-69517890D01*
X198663440Y-69266000D01*
X198663440Y-67234000D01*
X198619162Y-66998683D01*
X198480090Y-66782559D01*
X198267890Y-66637569D01*
X198016000Y-66586560D01*
X197136140Y-66586560D01*
X197136140Y-62797490D01*
X197151570Y-62797490D01*
X197386887Y-62753212D01*
X197603011Y-62614140D01*
X197748001Y-62401940D01*
X197799010Y-62150050D01*
X197799010Y-61349950D01*
X197754732Y-61114633D01*
X197615660Y-60898509D01*
X197403460Y-60753519D01*
X197151570Y-60702510D01*
X195735709Y-60702510D01*
X195735709Y-60586284D01*
X195817633Y-60463675D01*
X195859781Y-60251783D01*
X195985317Y-60228162D01*
X196201441Y-60089090D01*
X196247969Y-60020994D01*
X196390302Y-60163327D01*
X196623691Y-60260000D01*
X197214250Y-60260000D01*
X197373000Y-60101250D01*
X197373000Y-59127000D01*
X197353000Y-59127000D01*
X197353000Y-58873000D01*
X197373000Y-58873000D01*
X197373000Y-57898750D01*
X197214250Y-57740000D01*
X197111579Y-57740000D01*
X197325787Y-57525792D01*
X197325790Y-57525790D01*
X197485076Y-57287401D01*
X197517634Y-57238674D01*
X197585001Y-56900000D01*
X197585000Y-56899995D01*
X197585000Y-52900000D01*
X197517633Y-52561325D01*
X197325790Y-52274210D01*
X197325787Y-52274208D01*
X195825790Y-50774210D01*
X195729692Y-50710000D01*
X198790000Y-50710000D01*
X198790000Y-58019340D01*
G36*
X160615000Y-84383421D02*
X154845860Y-90152560D01*
X154650000Y-90152560D01*
X154416740Y-90196451D01*
X154200000Y-90152560D01*
X153400000Y-90152560D01*
X153164683Y-90196838D01*
X153160175Y-90199739D01*
X153076309Y-90165000D01*
X152835750Y-90165000D01*
X152677000Y-90323750D01*
X152677000Y-91323000D01*
X152697000Y-91323000D01*
X152697000Y-91577000D01*
X152677000Y-91577000D01*
X152677000Y-91597000D01*
X152423000Y-91597000D01*
X152423000Y-91577000D01*
X152403000Y-91577000D01*
X152403000Y-91323000D01*
X152423000Y-91323000D01*
X152423000Y-90323750D01*
X152264250Y-90165000D01*
X152023691Y-90165000D01*
X151937576Y-90200670D01*
X151700000Y-90152560D01*
X150935000Y-90152560D01*
X150935000Y-88800005D01*
X150935001Y-88800000D01*
X150897440Y-88611172D01*
X150897440Y-88285750D01*
X151615000Y-88285750D01*
X151615000Y-88926310D01*
X151711673Y-89159699D01*
X151890302Y-89338327D01*
X152123691Y-89435000D01*
X152964250Y-89435000D01*
X153123000Y-89276250D01*
X153123000Y-88127000D01*
X153377000Y-88127000D01*
X153377000Y-89276250D01*
X153535750Y-89435000D01*
X154376309Y-89435000D01*
X154609698Y-89338327D01*
X154788327Y-89159699D01*
X154885000Y-88926310D01*
X154885000Y-88285750D01*
X154726250Y-88127000D01*
X153377000Y-88127000D01*
X153123000Y-88127000D01*
X151773750Y-88127000D01*
X151615000Y-88285750D01*
X150897440Y-88285750D01*
X150897440Y-87200000D01*
X150873674Y-87073690D01*
X151615000Y-87073690D01*
X151615000Y-87714250D01*
X151773750Y-87873000D01*
X153123000Y-87873000D01*
X153123000Y-86723750D01*
X153377000Y-86723750D01*
X153377000Y-87873000D01*
X154726250Y-87873000D01*
X154885000Y-87714250D01*
X154885000Y-87073690D01*
X154788327Y-86840301D01*
X154609698Y-86661673D01*
X154376309Y-86565000D01*
X153535750Y-86565000D01*
X153377000Y-86723750D01*
X153123000Y-86723750D01*
X152964250Y-86565000D01*
X152123691Y-86565000D01*
X151890302Y-86661673D01*
X151711673Y-86840301D01*
X151615000Y-87073690D01*
X150873674Y-87073690D01*
X150853162Y-86964683D01*
X150714090Y-86748559D01*
X150501890Y-86603569D01*
X150290765Y-86560815D01*
X150854139Y-85997440D01*
X151650000Y-85997440D01*
X151885317Y-85953162D01*
X152101441Y-85814090D01*
X152246431Y-85601890D01*
X152297440Y-85350000D01*
X152297440Y-84454140D01*
X153125787Y-83625792D01*
X153125790Y-83625790D01*
X153317633Y-83338675D01*
X153385000Y-83000000D01*
X153385000Y-79866580D01*
X160615000Y-72636579D01*
X160615000Y-84383421D01*
X160615000Y-84383421D01*
G37*
X160615000Y-84383421D02*
X154845860Y-90152560D01*
X154650000Y-90152560D01*
X154416740Y-90196451D01*
X154200000Y-90152560D01*
X153400000Y-90152560D01*
X153164683Y-90196838D01*
X153160175Y-90199739D01*
X153076309Y-90165000D01*
X152835750Y-90165000D01*
X152677000Y-90323750D01*
X152677000Y-91323000D01*
X152697000Y-91323000D01*
X152697000Y-91577000D01*
X152677000Y-91577000D01*
X152677000Y-91597000D01*
X152423000Y-91597000D01*
X152423000Y-91577000D01*
X152403000Y-91577000D01*
X152403000Y-91323000D01*
X152423000Y-91323000D01*
X152423000Y-90323750D01*
X152264250Y-90165000D01*
X152023691Y-90165000D01*
X151937576Y-90200670D01*
X151700000Y-90152560D01*
X150935000Y-90152560D01*
X150935000Y-88800005D01*
X150935001Y-88800000D01*
X150897440Y-88611172D01*
X150897440Y-88285750D01*
X151615000Y-88285750D01*
X151615000Y-88926310D01*
X151711673Y-89159699D01*
X151890302Y-89338327D01*
X152123691Y-89435000D01*
X152964250Y-89435000D01*
X153123000Y-89276250D01*
X153123000Y-88127000D01*
X153377000Y-88127000D01*
X153377000Y-89276250D01*
X153535750Y-89435000D01*
X154376309Y-89435000D01*
X154609698Y-89338327D01*
X154788327Y-89159699D01*
X154885000Y-88926310D01*
X154885000Y-88285750D01*
X154726250Y-88127000D01*
X153377000Y-88127000D01*
X153123000Y-88127000D01*
X151773750Y-88127000D01*
X151615000Y-88285750D01*
X150897440Y-88285750D01*
X150897440Y-87200000D01*
X150873674Y-87073690D01*
X151615000Y-87073690D01*
X151615000Y-87714250D01*
X151773750Y-87873000D01*
X153123000Y-87873000D01*
X153123000Y-86723750D01*
X153377000Y-86723750D01*
X153377000Y-87873000D01*
X154726250Y-87873000D01*
X154885000Y-87714250D01*
X154885000Y-87073690D01*
X154788327Y-86840301D01*
X154609698Y-86661673D01*
X154376309Y-86565000D01*
X153535750Y-86565000D01*
X153377000Y-86723750D01*
X153123000Y-86723750D01*
X152964250Y-86565000D01*
X152123691Y-86565000D01*
X151890302Y-86661673D01*
X151711673Y-86840301D01*
X151615000Y-87073690D01*
X150873674Y-87073690D01*
X150853162Y-86964683D01*
X150714090Y-86748559D01*
X150501890Y-86603569D01*
X150290765Y-86560815D01*
X150854139Y-85997440D01*
X151650000Y-85997440D01*
X151885317Y-85953162D01*
X152101441Y-85814090D01*
X152246431Y-85601890D01*
X152297440Y-85350000D01*
X152297440Y-84454140D01*
X153125787Y-83625792D01*
X153125790Y-83625790D01*
X153317633Y-83338675D01*
X153385000Y-83000000D01*
X153385000Y-79866580D01*
X160615000Y-72636579D01*
X160615000Y-84383421D01*
G36*
X188161673Y-77640302D02*
X188065000Y-77873691D01*
X188065000Y-78714250D01*
X188223750Y-78873000D01*
X189373000Y-78873000D01*
X189373000Y-78853000D01*
X189627000Y-78853000D01*
X189627000Y-78873000D01*
X190776250Y-78873000D01*
X190935000Y-78714250D01*
X190935000Y-77873691D01*
X190838327Y-77640302D01*
X190833025Y-77635000D01*
X192098634Y-77635000D01*
X192202560Y-77655673D01*
X192202560Y-78450000D01*
X192246838Y-78685317D01*
X192249739Y-78689825D01*
X192215000Y-78773691D01*
X192215000Y-79014250D01*
X192373750Y-79173000D01*
X193373000Y-79173000D01*
X193373000Y-79153000D01*
X193627000Y-79153000D01*
X193627000Y-79173000D01*
X193647000Y-79173000D01*
X193647000Y-79427000D01*
X193627000Y-79427000D01*
X193627000Y-79447000D01*
X193373000Y-79447000D01*
X193373000Y-79427000D01*
X192373750Y-79427000D01*
X192215000Y-79585750D01*
X192215000Y-79826309D01*
X192250670Y-79912424D01*
X192202560Y-80150000D01*
X192202560Y-80915000D01*
X190700005Y-80915000D01*
X190700000Y-80914999D01*
X190361330Y-80982366D01*
X190361325Y-80982367D01*
X190074210Y-81174210D01*
X190074208Y-81174213D01*
X189895861Y-81352560D01*
X188700000Y-81352560D01*
X188464683Y-81396838D01*
X188248559Y-81535910D01*
X188103569Y-81748110D01*
X188052560Y-82000000D01*
X188052560Y-82695861D01*
X184945860Y-85802560D01*
X183750000Y-85802560D01*
X183514683Y-85846838D01*
X183298559Y-85985910D01*
X183153569Y-86198110D01*
X183135000Y-86289806D01*
X183135000Y-84750005D01*
X183135001Y-84750000D01*
X183067633Y-84411326D01*
X183067633Y-84411325D01*
X182875790Y-84124210D01*
X182875787Y-84124208D01*
X178037330Y-79285750D01*
X188065000Y-79285750D01*
X188065000Y-80126309D01*
X188161673Y-80359698D01*
X188340301Y-80538327D01*
X188573690Y-80635000D01*
X189214250Y-80635000D01*
X189373000Y-80476250D01*
X189373000Y-79127000D01*
X189627000Y-79127000D01*
X189627000Y-80476250D01*
X189785750Y-80635000D01*
X190426310Y-80635000D01*
X190659699Y-80538327D01*
X190838327Y-80359698D01*
X190935000Y-80126309D01*
X190935000Y-79285750D01*
X190776250Y-79127000D01*
X189627000Y-79127000D01*
X189373000Y-79127000D01*
X188223750Y-79127000D01*
X188065000Y-79285750D01*
X178037330Y-79285750D01*
X176386580Y-77635000D01*
X188166975Y-77635000D01*
X188161673Y-77640302D01*
X188161673Y-77640302D01*
G37*
X188161673Y-77640302D02*
X188065000Y-77873691D01*
X188065000Y-78714250D01*
X188223750Y-78873000D01*
X189373000Y-78873000D01*
X189373000Y-78853000D01*
X189627000Y-78853000D01*
X189627000Y-78873000D01*
X190776250Y-78873000D01*
X190935000Y-78714250D01*
X190935000Y-77873691D01*
X190838327Y-77640302D01*
X190833025Y-77635000D01*
X192098634Y-77635000D01*
X192202560Y-77655673D01*
X192202560Y-78450000D01*
X192246838Y-78685317D01*
X192249739Y-78689825D01*
X192215000Y-78773691D01*
X192215000Y-79014250D01*
X192373750Y-79173000D01*
X193373000Y-79173000D01*
X193373000Y-79153000D01*
X193627000Y-79153000D01*
X193627000Y-79173000D01*
X193647000Y-79173000D01*
X193647000Y-79427000D01*
X193627000Y-79427000D01*
X193627000Y-79447000D01*
X193373000Y-79447000D01*
X193373000Y-79427000D01*
X192373750Y-79427000D01*
X192215000Y-79585750D01*
X192215000Y-79826309D01*
X192250670Y-79912424D01*
X192202560Y-80150000D01*
X192202560Y-80915000D01*
X190700005Y-80915000D01*
X190700000Y-80914999D01*
X190361330Y-80982366D01*
X190361325Y-80982367D01*
X190074210Y-81174210D01*
X190074208Y-81174213D01*
X189895861Y-81352560D01*
X188700000Y-81352560D01*
X188464683Y-81396838D01*
X188248559Y-81535910D01*
X188103569Y-81748110D01*
X188052560Y-82000000D01*
X188052560Y-82695861D01*
X184945860Y-85802560D01*
X183750000Y-85802560D01*
X183514683Y-85846838D01*
X183298559Y-85985910D01*
X183153569Y-86198110D01*
X183135000Y-86289806D01*
X183135000Y-84750005D01*
X183135001Y-84750000D01*
X183067633Y-84411326D01*
X183067633Y-84411325D01*
X182875790Y-84124210D01*
X182875787Y-84124208D01*
X178037330Y-79285750D01*
X188065000Y-79285750D01*
X188065000Y-80126309D01*
X188161673Y-80359698D01*
X188340301Y-80538327D01*
X188573690Y-80635000D01*
X189214250Y-80635000D01*
X189373000Y-80476250D01*
X189373000Y-79127000D01*
X189627000Y-79127000D01*
X189627000Y-80476250D01*
X189785750Y-80635000D01*
X190426310Y-80635000D01*
X190659699Y-80538327D01*
X190838327Y-80359698D01*
X190935000Y-80126309D01*
X190935000Y-79285750D01*
X190776250Y-79127000D01*
X189627000Y-79127000D01*
X189373000Y-79127000D01*
X188223750Y-79127000D01*
X188065000Y-79285750D01*
X178037330Y-79285750D01*
X176386580Y-77635000D01*
X188166975Y-77635000D01*
X188161673Y-77640302D01*
G36*
X156727560Y-68500000D02*
X156740000Y-68566113D01*
X156740000Y-68796843D01*
X156624210Y-68874211D01*
X141633419Y-83865001D01*
X132435000Y-83865001D01*
X132435000Y-83535750D01*
X132276250Y-83377000D01*
X131127000Y-83377000D01*
X131127000Y-83397000D01*
X130873000Y-83397000D01*
X130873000Y-83377000D01*
X129723750Y-83377000D01*
X129565000Y-83535750D01*
X129565000Y-83865001D01*
X128401371Y-83865001D01*
X128401366Y-83865000D01*
X128297440Y-83844327D01*
X128297440Y-83050000D01*
X128253162Y-82814683D01*
X128250261Y-82810175D01*
X128285000Y-82726309D01*
X128285000Y-82485750D01*
X128126250Y-82327000D01*
X127127000Y-82327000D01*
X127127000Y-82347000D01*
X126873000Y-82347000D01*
X126873000Y-82327000D01*
X125873750Y-82327000D01*
X125715000Y-82485750D01*
X125715000Y-82726309D01*
X125750670Y-82812424D01*
X125702560Y-83050000D01*
X125702560Y-83850000D01*
X125746451Y-84083260D01*
X125702560Y-84300000D01*
X125702560Y-85100000D01*
X125746838Y-85335317D01*
X125885910Y-85551441D01*
X125945485Y-85592147D01*
X125750000Y-85552560D01*
X123135000Y-85552560D01*
X123135000Y-83666580D01*
X124677888Y-82123691D01*
X129565000Y-82123691D01*
X129565000Y-82964250D01*
X129723750Y-83123000D01*
X130873000Y-83123000D01*
X130873000Y-81773750D01*
X131127000Y-81773750D01*
X131127000Y-83123000D01*
X132276250Y-83123000D01*
X132435000Y-82964250D01*
X132435000Y-82123691D01*
X132338327Y-81890302D01*
X132159699Y-81711673D01*
X131926310Y-81615000D01*
X131285750Y-81615000D01*
X131127000Y-81773750D01*
X130873000Y-81773750D01*
X130714250Y-81615000D01*
X130073690Y-81615000D01*
X129840301Y-81711673D01*
X129661673Y-81890302D01*
X129565000Y-82123691D01*
X124677888Y-82123691D01*
X125702560Y-81099019D01*
X125702560Y-81350000D01*
X125746838Y-81585317D01*
X125749739Y-81589825D01*
X125715000Y-81673691D01*
X125715000Y-81914250D01*
X125873750Y-82073000D01*
X126873000Y-82073000D01*
X126873000Y-82053000D01*
X127127000Y-82053000D01*
X127127000Y-82073000D01*
X128126250Y-82073000D01*
X128285000Y-81914250D01*
X128285000Y-81673691D01*
X128249330Y-81587576D01*
X128297440Y-81350000D01*
X128297440Y-80585000D01*
X129660982Y-80585000D01*
X129735910Y-80701441D01*
X129948110Y-80846431D01*
X130200000Y-80897440D01*
X131800000Y-80897440D01*
X132035317Y-80853162D01*
X132251441Y-80714090D01*
X132396431Y-80501890D01*
X132447440Y-80250000D01*
X132447440Y-79054139D01*
X132616579Y-78885000D01*
X133502560Y-78885000D01*
X133502560Y-79000000D01*
X133546838Y-79235317D01*
X133685910Y-79451441D01*
X133898110Y-79596431D01*
X134150000Y-79647440D01*
X135850000Y-79647440D01*
X136085317Y-79603162D01*
X136301441Y-79464090D01*
X136446431Y-79251890D01*
X136497440Y-79000000D01*
X136497440Y-77000000D01*
X136466393Y-76835000D01*
X147799995Y-76835000D01*
X147800000Y-76835001D01*
X148082484Y-76778810D01*
X148138675Y-76767633D01*
X148425790Y-76575790D01*
X148425791Y-76575789D01*
X150675343Y-74326236D01*
X150675346Y-74326234D01*
X150675347Y-74326233D01*
X156727560Y-68274019D01*
X156727560Y-68500000D01*
X156727560Y-68500000D01*
G37*
X156727560Y-68500000D02*
X156740000Y-68566113D01*
X156740000Y-68796843D01*
X156624210Y-68874211D01*
X141633419Y-83865001D01*
X132435000Y-83865001D01*
X132435000Y-83535750D01*
X132276250Y-83377000D01*
X131127000Y-83377000D01*
X131127000Y-83397000D01*
X130873000Y-83397000D01*
X130873000Y-83377000D01*
X129723750Y-83377000D01*
X129565000Y-83535750D01*
X129565000Y-83865001D01*
X128401371Y-83865001D01*
X128401366Y-83865000D01*
X128297440Y-83844327D01*
X128297440Y-83050000D01*
X128253162Y-82814683D01*
X128250261Y-82810175D01*
X128285000Y-82726309D01*
X128285000Y-82485750D01*
X128126250Y-82327000D01*
X127127000Y-82327000D01*
X127127000Y-82347000D01*
X126873000Y-82347000D01*
X126873000Y-82327000D01*
X125873750Y-82327000D01*
X125715000Y-82485750D01*
X125715000Y-82726309D01*
X125750670Y-82812424D01*
X125702560Y-83050000D01*
X125702560Y-83850000D01*
X125746451Y-84083260D01*
X125702560Y-84300000D01*
X125702560Y-85100000D01*
X125746838Y-85335317D01*
X125885910Y-85551441D01*
X125945485Y-85592147D01*
X125750000Y-85552560D01*
X123135000Y-85552560D01*
X123135000Y-83666580D01*
X124677888Y-82123691D01*
X129565000Y-82123691D01*
X129565000Y-82964250D01*
X129723750Y-83123000D01*
X130873000Y-83123000D01*
X130873000Y-81773750D01*
X131127000Y-81773750D01*
X131127000Y-83123000D01*
X132276250Y-83123000D01*
X132435000Y-82964250D01*
X132435000Y-82123691D01*
X132338327Y-81890302D01*
X132159699Y-81711673D01*
X131926310Y-81615000D01*
X131285750Y-81615000D01*
X131127000Y-81773750D01*
X130873000Y-81773750D01*
X130714250Y-81615000D01*
X130073690Y-81615000D01*
X129840301Y-81711673D01*
X129661673Y-81890302D01*
X129565000Y-82123691D01*
X124677888Y-82123691D01*
X125702560Y-81099019D01*
X125702560Y-81350000D01*
X125746838Y-81585317D01*
X125749739Y-81589825D01*
X125715000Y-81673691D01*
X125715000Y-81914250D01*
X125873750Y-82073000D01*
X126873000Y-82073000D01*
X126873000Y-82053000D01*
X127127000Y-82053000D01*
X127127000Y-82073000D01*
X128126250Y-82073000D01*
X128285000Y-81914250D01*
X128285000Y-81673691D01*
X128249330Y-81587576D01*
X128297440Y-81350000D01*
X128297440Y-80585000D01*
X129660982Y-80585000D01*
X129735910Y-80701441D01*
X129948110Y-80846431D01*
X130200000Y-80897440D01*
X131800000Y-80897440D01*
X132035317Y-80853162D01*
X132251441Y-80714090D01*
X132396431Y-80501890D01*
X132447440Y-80250000D01*
X132447440Y-79054139D01*
X132616579Y-78885000D01*
X133502560Y-78885000D01*
X133502560Y-79000000D01*
X133546838Y-79235317D01*
X133685910Y-79451441D01*
X133898110Y-79596431D01*
X134150000Y-79647440D01*
X135850000Y-79647440D01*
X136085317Y-79603162D01*
X136301441Y-79464090D01*
X136446431Y-79251890D01*
X136497440Y-79000000D01*
X136497440Y-77000000D01*
X136466393Y-76835000D01*
X147799995Y-76835000D01*
X147800000Y-76835001D01*
X148082484Y-76778810D01*
X148138675Y-76767633D01*
X148425790Y-76575790D01*
X148425791Y-76575789D01*
X150675343Y-74326236D01*
X150675346Y-74326234D01*
X150675347Y-74326233D01*
X156727560Y-68274019D01*
X156727560Y-68500000D01*
G36*
X146833420Y-53915000D02*
X124250003Y-53915000D01*
X124249998Y-53914999D01*
X123970273Y-53970641D01*
X123911323Y-53982367D01*
X123624208Y-54174210D01*
X123624206Y-54174213D01*
X121874210Y-55924208D01*
X121682367Y-56211323D01*
X121682113Y-56212599D01*
X121614999Y-56549998D01*
X121615000Y-56550003D01*
X121615000Y-57899995D01*
X121614999Y-57900000D01*
X121662676Y-58139683D01*
X121682367Y-58238675D01*
X121822134Y-58447852D01*
X121874210Y-58525790D01*
X122974208Y-59625787D01*
X122974210Y-59625790D01*
X123261325Y-59817633D01*
X123317516Y-59828810D01*
X123600000Y-59885001D01*
X123600005Y-59885000D01*
X126996778Y-59885000D01*
X126996838Y-59885317D01*
X127135910Y-60101441D01*
X127348110Y-60246431D01*
X127600000Y-60297440D01*
X129100000Y-60297440D01*
X129335317Y-60253162D01*
X129551441Y-60114090D01*
X129696431Y-59901890D01*
X129699081Y-59888803D01*
X129835910Y-60101441D01*
X130048110Y-60246431D01*
X130165000Y-60270102D01*
X130165000Y-60299995D01*
X130164999Y-60300000D01*
X130210465Y-60528569D01*
X130232367Y-60638675D01*
X130397530Y-60885860D01*
X130424210Y-60925790D01*
X131874208Y-62375787D01*
X131874210Y-62375790D01*
X132161325Y-62567633D01*
X132217516Y-62578810D01*
X132500000Y-62635001D01*
X132500005Y-62635000D01*
X150990000Y-62635000D01*
X150990000Y-62964250D01*
X151148750Y-63123000D01*
X152123000Y-63123000D01*
X152123000Y-63103000D01*
X152377000Y-63103000D01*
X152377000Y-63123000D01*
X153351250Y-63123000D01*
X153408503Y-63065747D01*
X153411325Y-63067633D01*
X153467516Y-63078810D01*
X153750000Y-63135001D01*
X153750005Y-63135000D01*
X154500000Y-63135000D01*
X154604755Y-63114163D01*
X154602560Y-63125000D01*
X154602560Y-63375000D01*
X154626944Y-63504589D01*
X154603946Y-63618154D01*
X154462599Y-63712599D01*
X153451676Y-64723522D01*
X153339090Y-64548559D01*
X153270994Y-64502031D01*
X153413327Y-64359698D01*
X153510000Y-64126309D01*
X153510000Y-63535750D01*
X153351250Y-63377000D01*
X152377000Y-63377000D01*
X152377000Y-63397000D01*
X152123000Y-63397000D01*
X152123000Y-63377000D01*
X151148750Y-63377000D01*
X150990000Y-63535750D01*
X150990000Y-64126309D01*
X151086673Y-64359698D01*
X151227910Y-64500936D01*
X151173559Y-64535910D01*
X151028569Y-64748110D01*
X150977560Y-65000000D01*
X150977560Y-65770861D01*
X149245860Y-67502560D01*
X148100000Y-67502560D01*
X147864683Y-67546838D01*
X147648559Y-67685910D01*
X147503569Y-67898110D01*
X147452560Y-68150000D01*
X147452560Y-69045861D01*
X146374210Y-70124210D01*
X146182367Y-70411325D01*
X146182367Y-70411326D01*
X146114999Y-70750000D01*
X146115000Y-70750005D01*
X146115000Y-71633421D01*
X144633420Y-73115000D01*
X136497440Y-73115000D01*
X136497440Y-73000000D01*
X136453162Y-72764683D01*
X136314090Y-72548559D01*
X136101890Y-72403569D01*
X135850000Y-72352560D01*
X134150000Y-72352560D01*
X133914683Y-72396838D01*
X133698559Y-72535910D01*
X133553569Y-72748110D01*
X133502560Y-73000000D01*
X133502560Y-75000000D01*
X133514791Y-75065000D01*
X128064975Y-75065000D01*
X127901890Y-74953569D01*
X127650000Y-74902560D01*
X126350000Y-74902560D01*
X126165371Y-74937300D01*
X126201441Y-74914090D01*
X126346431Y-74701890D01*
X126397440Y-74450000D01*
X126397440Y-72350000D01*
X126353162Y-72114683D01*
X126214090Y-71898559D01*
X126001890Y-71753569D01*
X125750000Y-71702560D01*
X122750000Y-71702560D01*
X122514683Y-71746838D01*
X122298559Y-71885910D01*
X122153569Y-72098110D01*
X122102560Y-72350000D01*
X122102560Y-74450000D01*
X122146838Y-74685317D01*
X122285910Y-74901441D01*
X122498110Y-75046431D01*
X122750000Y-75097440D01*
X125686912Y-75097440D01*
X125598639Y-75114999D01*
X125511325Y-75132367D01*
X125224210Y-75324210D01*
X125224208Y-75324213D01*
X120210000Y-80338420D01*
X120210000Y-52335750D01*
X123415000Y-52335750D01*
X123415000Y-52826310D01*
X123511673Y-53059699D01*
X123690302Y-53238327D01*
X123923691Y-53335000D01*
X124539250Y-53335000D01*
X124698000Y-53176250D01*
X124698000Y-52177000D01*
X124952000Y-52177000D01*
X124952000Y-53176250D01*
X125110750Y-53335000D01*
X125726309Y-53335000D01*
X125959698Y-53238327D01*
X126138327Y-53059699D01*
X126235000Y-52826310D01*
X126235000Y-52335750D01*
X131365000Y-52335750D01*
X131365000Y-52826310D01*
X131461673Y-53059699D01*
X131640302Y-53238327D01*
X131873691Y-53335000D01*
X132489250Y-53335000D01*
X132648000Y-53176250D01*
X132648000Y-52177000D01*
X132902000Y-52177000D01*
X132902000Y-53176250D01*
X133060750Y-53335000D01*
X133676309Y-53335000D01*
X133909698Y-53238327D01*
X134088327Y-53059699D01*
X134185000Y-52826310D01*
X134185000Y-52335750D01*
X134915000Y-52335750D01*
X134915000Y-52826310D01*
X135011673Y-53059699D01*
X135190302Y-53238327D01*
X135423691Y-53335000D01*
X136039250Y-53335000D01*
X136198000Y-53176250D01*
X136198000Y-52177000D01*
X136452000Y-52177000D01*
X136452000Y-53176250D01*
X136610750Y-53335000D01*
X137226309Y-53335000D01*
X137459698Y-53238327D01*
X137638327Y-53059699D01*
X137735000Y-52826310D01*
X137735000Y-52335750D01*
X142865000Y-52335750D01*
X142865000Y-52826310D01*
X142961673Y-53059699D01*
X143140302Y-53238327D01*
X143373691Y-53335000D01*
X143989250Y-53335000D01*
X144148000Y-53176250D01*
X144148000Y-52177000D01*
X144402000Y-52177000D01*
X144402000Y-53176250D01*
X144560750Y-53335000D01*
X145176309Y-53335000D01*
X145409698Y-53238327D01*
X145588327Y-53059699D01*
X145685000Y-52826310D01*
X145685000Y-52335750D01*
X145526250Y-52177000D01*
X144402000Y-52177000D01*
X144148000Y-52177000D01*
X143023750Y-52177000D01*
X142865000Y-52335750D01*
X137735000Y-52335750D01*
X137576250Y-52177000D01*
X136452000Y-52177000D01*
X136198000Y-52177000D01*
X135073750Y-52177000D01*
X134915000Y-52335750D01*
X134185000Y-52335750D01*
X134026250Y-52177000D01*
X132902000Y-52177000D01*
X132648000Y-52177000D01*
X131523750Y-52177000D01*
X131365000Y-52335750D01*
X126235000Y-52335750D01*
X126076250Y-52177000D01*
X124952000Y-52177000D01*
X124698000Y-52177000D01*
X123573750Y-52177000D01*
X123415000Y-52335750D01*
X120210000Y-52335750D01*
X120210000Y-51273690D01*
X123415000Y-51273690D01*
X123415000Y-51764250D01*
X123573750Y-51923000D01*
X124698000Y-51923000D01*
X124698000Y-50923750D01*
X124952000Y-50923750D01*
X124952000Y-51923000D01*
X126076250Y-51923000D01*
X126235000Y-51764250D01*
X126235000Y-51273690D01*
X131365000Y-51273690D01*
X131365000Y-51764250D01*
X131523750Y-51923000D01*
X132648000Y-51923000D01*
X132648000Y-50923750D01*
X132902000Y-50923750D01*
X132902000Y-51923000D01*
X134026250Y-51923000D01*
X134185000Y-51764250D01*
X134185000Y-51273690D01*
X134915000Y-51273690D01*
X134915000Y-51764250D01*
X135073750Y-51923000D01*
X136198000Y-51923000D01*
X136198000Y-50923750D01*
X136452000Y-50923750D01*
X136452000Y-51923000D01*
X137576250Y-51923000D01*
X137735000Y-51764250D01*
X137735000Y-51273690D01*
X142865000Y-51273690D01*
X142865000Y-51764250D01*
X143023750Y-51923000D01*
X144148000Y-51923000D01*
X144148000Y-50923750D01*
X144402000Y-50923750D01*
X144402000Y-51923000D01*
X145526250Y-51923000D01*
X145685000Y-51764250D01*
X145685000Y-51273690D01*
X145588327Y-51040301D01*
X145409698Y-50861673D01*
X145176309Y-50765000D01*
X144560750Y-50765000D01*
X144402000Y-50923750D01*
X144148000Y-50923750D01*
X143989250Y-50765000D01*
X143373691Y-50765000D01*
X143140302Y-50861673D01*
X142961673Y-51040301D01*
X142865000Y-51273690D01*
X137735000Y-51273690D01*
X137638327Y-51040301D01*
X137459698Y-50861673D01*
X137226309Y-50765000D01*
X136610750Y-50765000D01*
X136452000Y-50923750D01*
X136198000Y-50923750D01*
X136039250Y-50765000D01*
X135423691Y-50765000D01*
X135190302Y-50861673D01*
X135011673Y-51040301D01*
X134915000Y-51273690D01*
X134185000Y-51273690D01*
X134088327Y-51040301D01*
X133909698Y-50861673D01*
X133676309Y-50765000D01*
X133060750Y-50765000D01*
X132902000Y-50923750D01*
X132648000Y-50923750D01*
X132489250Y-50765000D01*
X131873691Y-50765000D01*
X131640302Y-50861673D01*
X131461673Y-51040301D01*
X131365000Y-51273690D01*
X126235000Y-51273690D01*
X126138327Y-51040301D01*
X125959698Y-50861673D01*
X125726309Y-50765000D01*
X125110750Y-50765000D01*
X124952000Y-50923750D01*
X124698000Y-50923750D01*
X124539250Y-50765000D01*
X123923691Y-50765000D01*
X123690302Y-50861673D01*
X123511673Y-51040301D01*
X123415000Y-51273690D01*
X120210000Y-51273690D01*
X120210000Y-50710000D01*
X150038421Y-50710000D01*
X146833420Y-53915000D01*
X146833420Y-53915000D01*
G37*
X146833420Y-53915000D02*
X124250003Y-53915000D01*
X124249998Y-53914999D01*
X123970273Y-53970641D01*
X123911323Y-53982367D01*
X123624208Y-54174210D01*
X123624206Y-54174213D01*
X121874210Y-55924208D01*
X121682367Y-56211323D01*
X121682113Y-56212599D01*
X121614999Y-56549998D01*
X121615000Y-56550003D01*
X121615000Y-57899995D01*
X121614999Y-57900000D01*
X121662676Y-58139683D01*
X121682367Y-58238675D01*
X121822134Y-58447852D01*
X121874210Y-58525790D01*
X122974208Y-59625787D01*
X122974210Y-59625790D01*
X123261325Y-59817633D01*
X123317516Y-59828810D01*
X123600000Y-59885001D01*
X123600005Y-59885000D01*
X126996778Y-59885000D01*
X126996838Y-59885317D01*
X127135910Y-60101441D01*
X127348110Y-60246431D01*
X127600000Y-60297440D01*
X129100000Y-60297440D01*
X129335317Y-60253162D01*
X129551441Y-60114090D01*
X129696431Y-59901890D01*
X129699081Y-59888803D01*
X129835910Y-60101441D01*
X130048110Y-60246431D01*
X130165000Y-60270102D01*
X130165000Y-60299995D01*
X130164999Y-60300000D01*
X130210465Y-60528569D01*
X130232367Y-60638675D01*
X130397530Y-60885860D01*
X130424210Y-60925790D01*
X131874208Y-62375787D01*
X131874210Y-62375790D01*
X132161325Y-62567633D01*
X132217516Y-62578810D01*
X132500000Y-62635001D01*
X132500005Y-62635000D01*
X150990000Y-62635000D01*
X150990000Y-62964250D01*
X151148750Y-63123000D01*
X152123000Y-63123000D01*
X152123000Y-63103000D01*
X152377000Y-63103000D01*
X152377000Y-63123000D01*
X153351250Y-63123000D01*
X153408503Y-63065747D01*
X153411325Y-63067633D01*
X153467516Y-63078810D01*
X153750000Y-63135001D01*
X153750005Y-63135000D01*
X154500000Y-63135000D01*
X154604755Y-63114163D01*
X154602560Y-63125000D01*
X154602560Y-63375000D01*
X154626944Y-63504589D01*
X154603946Y-63618154D01*
X154462599Y-63712599D01*
X153451676Y-64723522D01*
X153339090Y-64548559D01*
X153270994Y-64502031D01*
X153413327Y-64359698D01*
X153510000Y-64126309D01*
X153510000Y-63535750D01*
X153351250Y-63377000D01*
X152377000Y-63377000D01*
X152377000Y-63397000D01*
X152123000Y-63397000D01*
X152123000Y-63377000D01*
X151148750Y-63377000D01*
X150990000Y-63535750D01*
X150990000Y-64126309D01*
X151086673Y-64359698D01*
X151227910Y-64500936D01*
X151173559Y-64535910D01*
X151028569Y-64748110D01*
X150977560Y-65000000D01*
X150977560Y-65770861D01*
X149245860Y-67502560D01*
X148100000Y-67502560D01*
X147864683Y-67546838D01*
X147648559Y-67685910D01*
X147503569Y-67898110D01*
X147452560Y-68150000D01*
X147452560Y-69045861D01*
X146374210Y-70124210D01*
X146182367Y-70411325D01*
X146182367Y-70411326D01*
X146114999Y-70750000D01*
X146115000Y-70750005D01*
X146115000Y-71633421D01*
X144633420Y-73115000D01*
X136497440Y-73115000D01*
X136497440Y-73000000D01*
X136453162Y-72764683D01*
X136314090Y-72548559D01*
X136101890Y-72403569D01*
X135850000Y-72352560D01*
X134150000Y-72352560D01*
X133914683Y-72396838D01*
X133698559Y-72535910D01*
X133553569Y-72748110D01*
X133502560Y-73000000D01*
X133502560Y-75000000D01*
X133514791Y-75065000D01*
X128064975Y-75065000D01*
X127901890Y-74953569D01*
X127650000Y-74902560D01*
X126350000Y-74902560D01*
X126165371Y-74937300D01*
X126201441Y-74914090D01*
X126346431Y-74701890D01*
X126397440Y-74450000D01*
X126397440Y-72350000D01*
X126353162Y-72114683D01*
X126214090Y-71898559D01*
X126001890Y-71753569D01*
X125750000Y-71702560D01*
X122750000Y-71702560D01*
X122514683Y-71746838D01*
X122298559Y-71885910D01*
X122153569Y-72098110D01*
X122102560Y-72350000D01*
X122102560Y-74450000D01*
X122146838Y-74685317D01*
X122285910Y-74901441D01*
X122498110Y-75046431D01*
X122750000Y-75097440D01*
X125686912Y-75097440D01*
X125598639Y-75114999D01*
X125511325Y-75132367D01*
X125224210Y-75324210D01*
X125224208Y-75324213D01*
X120210000Y-80338420D01*
X120210000Y-52335750D01*
X123415000Y-52335750D01*
X123415000Y-52826310D01*
X123511673Y-53059699D01*
X123690302Y-53238327D01*
X123923691Y-53335000D01*
X124539250Y-53335000D01*
X124698000Y-53176250D01*
X124698000Y-52177000D01*
X124952000Y-52177000D01*
X124952000Y-53176250D01*
X125110750Y-53335000D01*
X125726309Y-53335000D01*
X125959698Y-53238327D01*
X126138327Y-53059699D01*
X126235000Y-52826310D01*
X126235000Y-52335750D01*
X131365000Y-52335750D01*
X131365000Y-52826310D01*
X131461673Y-53059699D01*
X131640302Y-53238327D01*
X131873691Y-53335000D01*
X132489250Y-53335000D01*
X132648000Y-53176250D01*
X132648000Y-52177000D01*
X132902000Y-52177000D01*
X132902000Y-53176250D01*
X133060750Y-53335000D01*
X133676309Y-53335000D01*
X133909698Y-53238327D01*
X134088327Y-53059699D01*
X134185000Y-52826310D01*
X134185000Y-52335750D01*
X134915000Y-52335750D01*
X134915000Y-52826310D01*
X135011673Y-53059699D01*
X135190302Y-53238327D01*
X135423691Y-53335000D01*
X136039250Y-53335000D01*
X136198000Y-53176250D01*
X136198000Y-52177000D01*
X136452000Y-52177000D01*
X136452000Y-53176250D01*
X136610750Y-53335000D01*
X137226309Y-53335000D01*
X137459698Y-53238327D01*
X137638327Y-53059699D01*
X137735000Y-52826310D01*
X137735000Y-52335750D01*
X142865000Y-52335750D01*
X142865000Y-52826310D01*
X142961673Y-53059699D01*
X143140302Y-53238327D01*
X143373691Y-53335000D01*
X143989250Y-53335000D01*
X144148000Y-53176250D01*
X144148000Y-52177000D01*
X144402000Y-52177000D01*
X144402000Y-53176250D01*
X144560750Y-53335000D01*
X145176309Y-53335000D01*
X145409698Y-53238327D01*
X145588327Y-53059699D01*
X145685000Y-52826310D01*
X145685000Y-52335750D01*
X145526250Y-52177000D01*
X144402000Y-52177000D01*
X144148000Y-52177000D01*
X143023750Y-52177000D01*
X142865000Y-52335750D01*
X137735000Y-52335750D01*
X137576250Y-52177000D01*
X136452000Y-52177000D01*
X136198000Y-52177000D01*
X135073750Y-52177000D01*
X134915000Y-52335750D01*
X134185000Y-52335750D01*
X134026250Y-52177000D01*
X132902000Y-52177000D01*
X132648000Y-52177000D01*
X131523750Y-52177000D01*
X131365000Y-52335750D01*
X126235000Y-52335750D01*
X126076250Y-52177000D01*
X124952000Y-52177000D01*
X124698000Y-52177000D01*
X123573750Y-52177000D01*
X123415000Y-52335750D01*
X120210000Y-52335750D01*
X120210000Y-51273690D01*
X123415000Y-51273690D01*
X123415000Y-51764250D01*
X123573750Y-51923000D01*
X124698000Y-51923000D01*
X124698000Y-50923750D01*
X124952000Y-50923750D01*
X124952000Y-51923000D01*
X126076250Y-51923000D01*
X126235000Y-51764250D01*
X126235000Y-51273690D01*
X131365000Y-51273690D01*
X131365000Y-51764250D01*
X131523750Y-51923000D01*
X132648000Y-51923000D01*
X132648000Y-50923750D01*
X132902000Y-50923750D01*
X132902000Y-51923000D01*
X134026250Y-51923000D01*
X134185000Y-51764250D01*
X134185000Y-51273690D01*
X134915000Y-51273690D01*
X134915000Y-51764250D01*
X135073750Y-51923000D01*
X136198000Y-51923000D01*
X136198000Y-50923750D01*
X136452000Y-50923750D01*
X136452000Y-51923000D01*
X137576250Y-51923000D01*
X137735000Y-51764250D01*
X137735000Y-51273690D01*
X142865000Y-51273690D01*
X142865000Y-51764250D01*
X143023750Y-51923000D01*
X144148000Y-51923000D01*
X144148000Y-50923750D01*
X144402000Y-50923750D01*
X144402000Y-51923000D01*
X145526250Y-51923000D01*
X145685000Y-51764250D01*
X145685000Y-51273690D01*
X145588327Y-51040301D01*
X145409698Y-50861673D01*
X145176309Y-50765000D01*
X144560750Y-50765000D01*
X144402000Y-50923750D01*
X144148000Y-50923750D01*
X143989250Y-50765000D01*
X143373691Y-50765000D01*
X143140302Y-50861673D01*
X142961673Y-51040301D01*
X142865000Y-51273690D01*
X137735000Y-51273690D01*
X137638327Y-51040301D01*
X137459698Y-50861673D01*
X137226309Y-50765000D01*
X136610750Y-50765000D01*
X136452000Y-50923750D01*
X136198000Y-50923750D01*
X136039250Y-50765000D01*
X135423691Y-50765000D01*
X135190302Y-50861673D01*
X135011673Y-51040301D01*
X134915000Y-51273690D01*
X134185000Y-51273690D01*
X134088327Y-51040301D01*
X133909698Y-50861673D01*
X133676309Y-50765000D01*
X133060750Y-50765000D01*
X132902000Y-50923750D01*
X132648000Y-50923750D01*
X132489250Y-50765000D01*
X131873691Y-50765000D01*
X131640302Y-50861673D01*
X131461673Y-51040301D01*
X131365000Y-51273690D01*
X126235000Y-51273690D01*
X126138327Y-51040301D01*
X125959698Y-50861673D01*
X125726309Y-50765000D01*
X125110750Y-50765000D01*
X124952000Y-50923750D01*
X124698000Y-50923750D01*
X124539250Y-50765000D01*
X123923691Y-50765000D01*
X123690302Y-50861673D01*
X123511673Y-51040301D01*
X123415000Y-51273690D01*
X120210000Y-51273690D01*
X120210000Y-50710000D01*
X150038421Y-50710000D01*
X146833420Y-53915000D01*
G36*
X192940330Y-57629029D02*
X193115000Y-57745740D01*
X193115000Y-57999995D01*
X193114999Y-58000000D01*
X193157289Y-58212599D01*
X193182367Y-58338675D01*
X193306644Y-58524670D01*
X193374210Y-58625790D01*
X193602560Y-58854140D01*
X193602560Y-59625000D01*
X193628893Y-59764950D01*
X193534610Y-59764950D01*
X193375860Y-59923700D01*
X193375860Y-60673000D01*
X193395860Y-60673000D01*
X193395860Y-60927000D01*
X193375860Y-60927000D01*
X193375860Y-60947000D01*
X193121860Y-60947000D01*
X193121860Y-60927000D01*
X191872180Y-60927000D01*
X191713430Y-61085750D01*
X191713430Y-61326359D01*
X191810103Y-61559748D01*
X191988731Y-61738377D01*
X192025082Y-61753434D01*
X191896989Y-61835860D01*
X191751999Y-62048060D01*
X191700990Y-62299950D01*
X191700990Y-63100050D01*
X191745268Y-63335367D01*
X191884340Y-63551491D01*
X192096540Y-63696481D01*
X192348430Y-63747490D01*
X192363860Y-63747490D01*
X192363860Y-64302560D01*
X192250000Y-64302560D01*
X192014683Y-64346838D01*
X191798559Y-64485910D01*
X191653569Y-64698110D01*
X191602560Y-64950000D01*
X191602560Y-65945861D01*
X190885000Y-66663420D01*
X190885000Y-66035750D01*
X190726250Y-65877000D01*
X189377000Y-65877000D01*
X189377000Y-67026250D01*
X189535750Y-67185000D01*
X190367000Y-67185000D01*
X190280138Y-67315000D01*
X189535750Y-67315000D01*
X189377000Y-67473750D01*
X189377000Y-68623000D01*
X189397000Y-68623000D01*
X189397000Y-68877000D01*
X189377000Y-68877000D01*
X189377000Y-70026250D01*
X189535750Y-70185000D01*
X190115000Y-70185000D01*
X190115000Y-70934661D01*
X189747201Y-71302460D01*
X187750380Y-71302460D01*
X187515063Y-71346738D01*
X187298939Y-71485810D01*
X187252103Y-71554357D01*
X187109318Y-71411573D01*
X186875929Y-71314900D01*
X185734890Y-71314900D01*
X185576140Y-71473650D01*
X185576140Y-72623000D01*
X185596140Y-72623000D01*
X185596140Y-72877000D01*
X185576140Y-72877000D01*
X185576140Y-74026350D01*
X185734890Y-74185100D01*
X186875929Y-74185100D01*
X187109318Y-74088427D01*
X187251018Y-73946727D01*
X187286290Y-74001541D01*
X187498490Y-74146531D01*
X187750380Y-74197540D01*
X190351340Y-74197540D01*
X190586657Y-74153262D01*
X190802781Y-74014190D01*
X190947771Y-73801990D01*
X190981587Y-73635000D01*
X191033422Y-73635000D01*
X193150983Y-75752560D01*
X192850000Y-75752560D01*
X192614683Y-75796838D01*
X192459464Y-75896719D01*
X192300000Y-75864999D01*
X192299995Y-75865000D01*
X172266579Y-75865000D01*
X169437330Y-73035750D01*
X183513660Y-73035750D01*
X183513660Y-73676410D01*
X183610333Y-73909799D01*
X183788962Y-74088427D01*
X184022351Y-74185100D01*
X185163390Y-74185100D01*
X185322140Y-74026350D01*
X185322140Y-72877000D01*
X183672410Y-72877000D01*
X183513660Y-73035750D01*
X169437330Y-73035750D01*
X168225170Y-71823590D01*
X183513660Y-71823590D01*
X183513660Y-72464250D01*
X183672410Y-72623000D01*
X185322140Y-72623000D01*
X185322140Y-71473650D01*
X185163390Y-71314900D01*
X184022351Y-71314900D01*
X183788962Y-71411573D01*
X183610333Y-71590201D01*
X183513660Y-71823590D01*
X168225170Y-71823590D01*
X165437330Y-69035750D01*
X187615000Y-69035750D01*
X187615000Y-69676310D01*
X187711673Y-69909699D01*
X187890302Y-70088327D01*
X188123691Y-70185000D01*
X188964250Y-70185000D01*
X189123000Y-70026250D01*
X189123000Y-68877000D01*
X187773750Y-68877000D01*
X187615000Y-69035750D01*
X165437330Y-69035750D01*
X164225270Y-67823690D01*
X187615000Y-67823690D01*
X187615000Y-68464250D01*
X187773750Y-68623000D01*
X189123000Y-68623000D01*
X189123000Y-67473750D01*
X188964250Y-67315000D01*
X188123691Y-67315000D01*
X187890302Y-67411673D01*
X187711673Y-67590301D01*
X187615000Y-67823690D01*
X164225270Y-67823690D01*
X164021022Y-67619442D01*
X164021019Y-67619440D01*
X163772440Y-67370860D01*
X163772440Y-67200000D01*
X163730672Y-66978025D01*
X163950000Y-67022440D01*
X165250000Y-67022440D01*
X165316113Y-67010000D01*
X167325071Y-67010000D01*
X167411325Y-67067633D01*
X167750000Y-67135000D01*
X184499995Y-67135000D01*
X184500000Y-67135001D01*
X184782484Y-67078810D01*
X184838675Y-67067633D01*
X185125790Y-66875790D01*
X185965829Y-66035750D01*
X187615000Y-66035750D01*
X187615000Y-66676310D01*
X187711673Y-66909699D01*
X187890302Y-67088327D01*
X188123691Y-67185000D01*
X188964250Y-67185000D01*
X189123000Y-67026250D01*
X189123000Y-65877000D01*
X187773750Y-65877000D01*
X187615000Y-66035750D01*
X185965829Y-66035750D01*
X187177889Y-64823690D01*
X187615000Y-64823690D01*
X187615000Y-65464250D01*
X187773750Y-65623000D01*
X189123000Y-65623000D01*
X189123000Y-64473750D01*
X189377000Y-64473750D01*
X189377000Y-65623000D01*
X190726250Y-65623000D01*
X190885000Y-65464250D01*
X190885000Y-64823690D01*
X190788327Y-64590301D01*
X190609698Y-64411673D01*
X190376309Y-64315000D01*
X189535750Y-64315000D01*
X189377000Y-64473750D01*
X189123000Y-64473750D01*
X188964250Y-64315000D01*
X188123691Y-64315000D01*
X187890302Y-64411673D01*
X187711673Y-64590301D01*
X187615000Y-64823690D01*
X187177889Y-64823690D01*
X191713430Y-60288149D01*
X191713430Y-60514250D01*
X191872180Y-60673000D01*
X193121860Y-60673000D01*
X193121860Y-59923700D01*
X192963110Y-59764950D01*
X192222120Y-59764950D01*
X192172976Y-59785306D01*
X192277633Y-59628675D01*
X192345000Y-59290000D01*
X192345000Y-57745740D01*
X192519670Y-57629029D01*
X192730000Y-57314248D01*
X192940330Y-57629029D01*
X192940330Y-57629029D01*
G37*
X192940330Y-57629029D02*
X193115000Y-57745740D01*
X193115000Y-57999995D01*
X193114999Y-58000000D01*
X193157289Y-58212599D01*
X193182367Y-58338675D01*
X193306644Y-58524670D01*
X193374210Y-58625790D01*
X193602560Y-58854140D01*
X193602560Y-59625000D01*
X193628893Y-59764950D01*
X193534610Y-59764950D01*
X193375860Y-59923700D01*
X193375860Y-60673000D01*
X193395860Y-60673000D01*
X193395860Y-60927000D01*
X193375860Y-60927000D01*
X193375860Y-60947000D01*
X193121860Y-60947000D01*
X193121860Y-60927000D01*
X191872180Y-60927000D01*
X191713430Y-61085750D01*
X191713430Y-61326359D01*
X191810103Y-61559748D01*
X191988731Y-61738377D01*
X192025082Y-61753434D01*
X191896989Y-61835860D01*
X191751999Y-62048060D01*
X191700990Y-62299950D01*
X191700990Y-63100050D01*
X191745268Y-63335367D01*
X191884340Y-63551491D01*
X192096540Y-63696481D01*
X192348430Y-63747490D01*
X192363860Y-63747490D01*
X192363860Y-64302560D01*
X192250000Y-64302560D01*
X192014683Y-64346838D01*
X191798559Y-64485910D01*
X191653569Y-64698110D01*
X191602560Y-64950000D01*
X191602560Y-65945861D01*
X190885000Y-66663420D01*
X190885000Y-66035750D01*
X190726250Y-65877000D01*
X189377000Y-65877000D01*
X189377000Y-67026250D01*
X189535750Y-67185000D01*
X190367000Y-67185000D01*
X190280138Y-67315000D01*
X189535750Y-67315000D01*
X189377000Y-67473750D01*
X189377000Y-68623000D01*
X189397000Y-68623000D01*
X189397000Y-68877000D01*
X189377000Y-68877000D01*
X189377000Y-70026250D01*
X189535750Y-70185000D01*
X190115000Y-70185000D01*
X190115000Y-70934661D01*
X189747201Y-71302460D01*
X187750380Y-71302460D01*
X187515063Y-71346738D01*
X187298939Y-71485810D01*
X187252103Y-71554357D01*
X187109318Y-71411573D01*
X186875929Y-71314900D01*
X185734890Y-71314900D01*
X185576140Y-71473650D01*
X185576140Y-72623000D01*
X185596140Y-72623000D01*
X185596140Y-72877000D01*
X185576140Y-72877000D01*
X185576140Y-74026350D01*
X185734890Y-74185100D01*
X186875929Y-74185100D01*
X187109318Y-74088427D01*
X187251018Y-73946727D01*
X187286290Y-74001541D01*
X187498490Y-74146531D01*
X187750380Y-74197540D01*
X190351340Y-74197540D01*
X190586657Y-74153262D01*
X190802781Y-74014190D01*
X190947771Y-73801990D01*
X190981587Y-73635000D01*
X191033422Y-73635000D01*
X193150983Y-75752560D01*
X192850000Y-75752560D01*
X192614683Y-75796838D01*
X192459464Y-75896719D01*
X192300000Y-75864999D01*
X192299995Y-75865000D01*
X172266579Y-75865000D01*
X169437330Y-73035750D01*
X183513660Y-73035750D01*
X183513660Y-73676410D01*
X183610333Y-73909799D01*
X183788962Y-74088427D01*
X184022351Y-74185100D01*
X185163390Y-74185100D01*
X185322140Y-74026350D01*
X185322140Y-72877000D01*
X183672410Y-72877000D01*
X183513660Y-73035750D01*
X169437330Y-73035750D01*
X168225170Y-71823590D01*
X183513660Y-71823590D01*
X183513660Y-72464250D01*
X183672410Y-72623000D01*
X185322140Y-72623000D01*
X185322140Y-71473650D01*
X185163390Y-71314900D01*
X184022351Y-71314900D01*
X183788962Y-71411573D01*
X183610333Y-71590201D01*
X183513660Y-71823590D01*
X168225170Y-71823590D01*
X165437330Y-69035750D01*
X187615000Y-69035750D01*
X187615000Y-69676310D01*
X187711673Y-69909699D01*
X187890302Y-70088327D01*
X188123691Y-70185000D01*
X188964250Y-70185000D01*
X189123000Y-70026250D01*
X189123000Y-68877000D01*
X187773750Y-68877000D01*
X187615000Y-69035750D01*
X165437330Y-69035750D01*
X164225270Y-67823690D01*
X187615000Y-67823690D01*
X187615000Y-68464250D01*
X187773750Y-68623000D01*
X189123000Y-68623000D01*
X189123000Y-67473750D01*
X188964250Y-67315000D01*
X188123691Y-67315000D01*
X187890302Y-67411673D01*
X187711673Y-67590301D01*
X187615000Y-67823690D01*
X164225270Y-67823690D01*
X164021022Y-67619442D01*
X164021019Y-67619440D01*
X163772440Y-67370860D01*
X163772440Y-67200000D01*
X163730672Y-66978025D01*
X163950000Y-67022440D01*
X165250000Y-67022440D01*
X165316113Y-67010000D01*
X167325071Y-67010000D01*
X167411325Y-67067633D01*
X167750000Y-67135000D01*
X184499995Y-67135000D01*
X184500000Y-67135001D01*
X184782484Y-67078810D01*
X184838675Y-67067633D01*
X185125790Y-66875790D01*
X185965829Y-66035750D01*
X187615000Y-66035750D01*
X187615000Y-66676310D01*
X187711673Y-66909699D01*
X187890302Y-67088327D01*
X188123691Y-67185000D01*
X188964250Y-67185000D01*
X189123000Y-67026250D01*
X189123000Y-65877000D01*
X187773750Y-65877000D01*
X187615000Y-66035750D01*
X185965829Y-66035750D01*
X187177889Y-64823690D01*
X187615000Y-64823690D01*
X187615000Y-65464250D01*
X187773750Y-65623000D01*
X189123000Y-65623000D01*
X189123000Y-64473750D01*
X189377000Y-64473750D01*
X189377000Y-65623000D01*
X190726250Y-65623000D01*
X190885000Y-65464250D01*
X190885000Y-64823690D01*
X190788327Y-64590301D01*
X190609698Y-64411673D01*
X190376309Y-64315000D01*
X189535750Y-64315000D01*
X189377000Y-64473750D01*
X189123000Y-64473750D01*
X188964250Y-64315000D01*
X188123691Y-64315000D01*
X187890302Y-64411673D01*
X187711673Y-64590301D01*
X187615000Y-64823690D01*
X187177889Y-64823690D01*
X191713430Y-60288149D01*
X191713430Y-60514250D01*
X191872180Y-60673000D01*
X193121860Y-60673000D01*
X193121860Y-59923700D01*
X192963110Y-59764950D01*
X192222120Y-59764950D01*
X192172976Y-59785306D01*
X192277633Y-59628675D01*
X192345000Y-59290000D01*
X192345000Y-57745740D01*
X192519670Y-57629029D01*
X192730000Y-57314248D01*
X192940330Y-57629029D01*
G36*
X161123110Y-60396431D02*
X161197808Y-60411558D01*
X161221250Y-60435000D01*
X161251310Y-60435000D01*
X161271753Y-60426532D01*
X161375000Y-60447440D01*
X161625000Y-60447440D01*
X161754589Y-60423056D01*
X161875000Y-60447440D01*
X162025165Y-60447440D01*
X161932367Y-60586323D01*
X161932367Y-60586324D01*
X161864999Y-60924998D01*
X161865000Y-60925003D01*
X161865000Y-65000000D01*
X161932367Y-65338675D01*
X162124210Y-65625790D01*
X162411325Y-65817633D01*
X162548757Y-65844970D01*
X162709160Y-65952148D01*
X163000000Y-66010000D01*
X163325848Y-66010000D01*
X163302560Y-66125000D01*
X163302560Y-66375000D01*
X163344328Y-66596975D01*
X163125000Y-66552560D01*
X162875000Y-66552560D01*
X162745411Y-66576944D01*
X162625000Y-66552560D01*
X162375000Y-66552560D01*
X162245411Y-66576944D01*
X162125000Y-66552560D01*
X161875000Y-66552560D01*
X161745411Y-66576944D01*
X161625000Y-66552560D01*
X161375000Y-66552560D01*
X161269295Y-66572450D01*
X161251310Y-66565000D01*
X161221250Y-66565000D01*
X161200938Y-66585312D01*
X161139683Y-66596838D01*
X161005931Y-66682905D01*
X160984699Y-66661673D01*
X160798153Y-66584403D01*
X160778750Y-66565000D01*
X160721250Y-66565000D01*
X160701847Y-66584403D01*
X160635000Y-66612092D01*
X160635000Y-66000005D01*
X160635001Y-66000000D01*
X160577832Y-65712599D01*
X160567633Y-65661325D01*
X160375790Y-65374210D01*
X160375787Y-65374208D01*
X159501580Y-64500000D01*
X160125787Y-63875792D01*
X160125790Y-63875790D01*
X160260916Y-63673559D01*
X160317634Y-63588674D01*
X160385001Y-63250000D01*
X160385000Y-63249995D01*
X160385000Y-60750000D01*
X160322710Y-60436851D01*
X160375000Y-60447440D01*
X160625000Y-60447440D01*
X160730705Y-60427550D01*
X160748690Y-60435000D01*
X160778750Y-60435000D01*
X160799062Y-60414688D01*
X160860317Y-60403162D01*
X161000727Y-60312810D01*
X161123110Y-60396431D01*
X161123110Y-60396431D01*
G37*
X161123110Y-60396431D02*
X161197808Y-60411558D01*
X161221250Y-60435000D01*
X161251310Y-60435000D01*
X161271753Y-60426532D01*
X161375000Y-60447440D01*
X161625000Y-60447440D01*
X161754589Y-60423056D01*
X161875000Y-60447440D01*
X162025165Y-60447440D01*
X161932367Y-60586323D01*
X161932367Y-60586324D01*
X161864999Y-60924998D01*
X161865000Y-60925003D01*
X161865000Y-65000000D01*
X161932367Y-65338675D01*
X162124210Y-65625790D01*
X162411325Y-65817633D01*
X162548757Y-65844970D01*
X162709160Y-65952148D01*
X163000000Y-66010000D01*
X163325848Y-66010000D01*
X163302560Y-66125000D01*
X163302560Y-66375000D01*
X163344328Y-66596975D01*
X163125000Y-66552560D01*
X162875000Y-66552560D01*
X162745411Y-66576944D01*
X162625000Y-66552560D01*
X162375000Y-66552560D01*
X162245411Y-66576944D01*
X162125000Y-66552560D01*
X161875000Y-66552560D01*
X161745411Y-66576944D01*
X161625000Y-66552560D01*
X161375000Y-66552560D01*
X161269295Y-66572450D01*
X161251310Y-66565000D01*
X161221250Y-66565000D01*
X161200938Y-66585312D01*
X161139683Y-66596838D01*
X161005931Y-66682905D01*
X160984699Y-66661673D01*
X160798153Y-66584403D01*
X160778750Y-66565000D01*
X160721250Y-66565000D01*
X160701847Y-66584403D01*
X160635000Y-66612092D01*
X160635000Y-66000005D01*
X160635001Y-66000000D01*
X160577832Y-65712599D01*
X160567633Y-65661325D01*
X160375790Y-65374210D01*
X160375787Y-65374208D01*
X159501580Y-64500000D01*
X160125787Y-63875792D01*
X160125790Y-63875790D01*
X160260916Y-63673559D01*
X160317634Y-63588674D01*
X160385001Y-63250000D01*
X160385000Y-63249995D01*
X160385000Y-60750000D01*
X160322710Y-60436851D01*
X160375000Y-60447440D01*
X160625000Y-60447440D01*
X160730705Y-60427550D01*
X160748690Y-60435000D01*
X160778750Y-60435000D01*
X160799062Y-60414688D01*
X160860317Y-60403162D01*
X161000727Y-60312810D01*
X161123110Y-60396431D01*
G36*
X157375000Y-60447440D02*
X157625000Y-60447440D01*
X157754589Y-60423056D01*
X157875000Y-60447440D01*
X158125000Y-60447440D01*
X158254589Y-60423056D01*
X158375000Y-60447440D01*
X158625000Y-60447440D01*
X158677135Y-60437630D01*
X158615000Y-60750000D01*
X158615000Y-62883421D01*
X158133420Y-63365000D01*
X157500000Y-63365000D01*
X157186851Y-63427290D01*
X157197440Y-63375000D01*
X157197440Y-63125000D01*
X157177550Y-63019295D01*
X157185000Y-63001310D01*
X157185000Y-62971250D01*
X157164688Y-62950938D01*
X157153162Y-62889683D01*
X157062810Y-62749273D01*
X157146431Y-62626890D01*
X157161558Y-62552192D01*
X157185000Y-62528750D01*
X157185000Y-62498690D01*
X157176532Y-62478247D01*
X157197440Y-62375000D01*
X157197440Y-62125000D01*
X157173056Y-61995411D01*
X157197440Y-61875000D01*
X157197440Y-61625000D01*
X157173056Y-61495411D01*
X157197440Y-61375000D01*
X157197440Y-61125000D01*
X157173056Y-60995411D01*
X157197440Y-60875000D01*
X157197440Y-60625000D01*
X157155672Y-60403025D01*
X157375000Y-60447440D01*
X157375000Y-60447440D01*
G37*
X157375000Y-60447440D02*
X157625000Y-60447440D01*
X157754589Y-60423056D01*
X157875000Y-60447440D01*
X158125000Y-60447440D01*
X158254589Y-60423056D01*
X158375000Y-60447440D01*
X158625000Y-60447440D01*
X158677135Y-60437630D01*
X158615000Y-60750000D01*
X158615000Y-62883421D01*
X158133420Y-63365000D01*
X157500000Y-63365000D01*
X157186851Y-63427290D01*
X157197440Y-63375000D01*
X157197440Y-63125000D01*
X157177550Y-63019295D01*
X157185000Y-63001310D01*
X157185000Y-62971250D01*
X157164688Y-62950938D01*
X157153162Y-62889683D01*
X157062810Y-62749273D01*
X157146431Y-62626890D01*
X157161558Y-62552192D01*
X157185000Y-62528750D01*
X157185000Y-62498690D01*
X157176532Y-62478247D01*
X157197440Y-62375000D01*
X157197440Y-62125000D01*
X157173056Y-61995411D01*
X157197440Y-61875000D01*
X157197440Y-61625000D01*
X157173056Y-61495411D01*
X157197440Y-61375000D01*
X157197440Y-61125000D01*
X157173056Y-60995411D01*
X157197440Y-60875000D01*
X157197440Y-60625000D01*
X157155672Y-60403025D01*
X157375000Y-60447440D01*
G36*
X153421400Y-53014250D02*
X153580150Y-53173000D01*
X154793000Y-53173000D01*
X154793000Y-53153000D01*
X155047000Y-53153000D01*
X155047000Y-53173000D01*
X155067000Y-53173000D01*
X155067000Y-53427000D01*
X155047000Y-53427000D01*
X155047000Y-54792250D01*
X155205750Y-54951000D01*
X155909910Y-54951000D01*
X156143299Y-54854327D01*
X156321927Y-54675698D01*
X156385500Y-54522220D01*
X156400330Y-54544415D01*
X156886511Y-54869271D01*
X157240000Y-54939584D01*
X157240000Y-57877962D01*
X157139683Y-57896838D01*
X156923559Y-58035910D01*
X156778569Y-58248110D01*
X156727560Y-58500000D01*
X156727560Y-59800000D01*
X156769328Y-60021975D01*
X156550000Y-59977560D01*
X155250000Y-59977560D01*
X155014683Y-60021838D01*
X154798559Y-60160910D01*
X154653569Y-60373110D01*
X154606605Y-60605025D01*
X154375790Y-60374210D01*
X154344289Y-60353162D01*
X154088675Y-60182367D01*
X154032484Y-60171190D01*
X153750000Y-60114999D01*
X153749995Y-60115000D01*
X149216579Y-60115000D01*
X145697440Y-56595860D01*
X145697440Y-55900000D01*
X145656985Y-55685000D01*
X147199995Y-55685000D01*
X147200000Y-55685001D01*
X147511140Y-55623110D01*
X147538675Y-55617633D01*
X147825790Y-55425790D01*
X147825791Y-55425789D01*
X149665829Y-53585750D01*
X153421400Y-53585750D01*
X153421400Y-54442309D01*
X153518073Y-54675698D01*
X153696701Y-54854327D01*
X153930090Y-54951000D01*
X154634250Y-54951000D01*
X154793000Y-54792250D01*
X154793000Y-53427000D01*
X153580150Y-53427000D01*
X153421400Y-53585750D01*
X149665829Y-53585750D01*
X151066579Y-52185000D01*
X153421400Y-52185000D01*
X153421400Y-53014250D01*
X153421400Y-53014250D01*
G37*
X153421400Y-53014250D02*
X153580150Y-53173000D01*
X154793000Y-53173000D01*
X154793000Y-53153000D01*
X155047000Y-53153000D01*
X155047000Y-53173000D01*
X155067000Y-53173000D01*
X155067000Y-53427000D01*
X155047000Y-53427000D01*
X155047000Y-54792250D01*
X155205750Y-54951000D01*
X155909910Y-54951000D01*
X156143299Y-54854327D01*
X156321927Y-54675698D01*
X156385500Y-54522220D01*
X156400330Y-54544415D01*
X156886511Y-54869271D01*
X157240000Y-54939584D01*
X157240000Y-57877962D01*
X157139683Y-57896838D01*
X156923559Y-58035910D01*
X156778569Y-58248110D01*
X156727560Y-58500000D01*
X156727560Y-59800000D01*
X156769328Y-60021975D01*
X156550000Y-59977560D01*
X155250000Y-59977560D01*
X155014683Y-60021838D01*
X154798559Y-60160910D01*
X154653569Y-60373110D01*
X154606605Y-60605025D01*
X154375790Y-60374210D01*
X154344289Y-60353162D01*
X154088675Y-60182367D01*
X154032484Y-60171190D01*
X153750000Y-60114999D01*
X153749995Y-60115000D01*
X149216579Y-60115000D01*
X145697440Y-56595860D01*
X145697440Y-55900000D01*
X145656985Y-55685000D01*
X147199995Y-55685000D01*
X147200000Y-55685001D01*
X147511140Y-55623110D01*
X147538675Y-55617633D01*
X147825790Y-55425790D01*
X147825791Y-55425789D01*
X149665829Y-53585750D01*
X153421400Y-53585750D01*
X153421400Y-54442309D01*
X153518073Y-54675698D01*
X153696701Y-54854327D01*
X153930090Y-54951000D01*
X154634250Y-54951000D01*
X154793000Y-54792250D01*
X154793000Y-53427000D01*
X153580150Y-53427000D01*
X153421400Y-53585750D01*
X149665829Y-53585750D01*
X151066579Y-52185000D01*
X153421400Y-52185000D01*
X153421400Y-53014250D01*
G36*
X177302460Y-53499620D02*
X177346738Y-53734937D01*
X177485810Y-53951061D01*
X177554357Y-53997897D01*
X177411573Y-54140682D01*
X177314900Y-54374071D01*
X177314900Y-55515110D01*
X177473650Y-55673860D01*
X178623000Y-55673860D01*
X178623000Y-55653860D01*
X178877000Y-55653860D01*
X178877000Y-55673860D01*
X180026350Y-55673860D01*
X180185100Y-55515110D01*
X180185100Y-54374071D01*
X180088427Y-54140682D01*
X179946727Y-53998982D01*
X180001541Y-53963710D01*
X180146531Y-53751510D01*
X180197540Y-53499620D01*
X180197540Y-52285000D01*
X194833420Y-52285000D01*
X195092183Y-52543763D01*
X194989910Y-52501400D01*
X194285750Y-52501400D01*
X194127000Y-52660150D01*
X194127000Y-53873000D01*
X195339850Y-53873000D01*
X195498600Y-53714250D01*
X195498600Y-53010091D01*
X195456236Y-52907815D01*
X195815000Y-53266579D01*
X195815000Y-56518599D01*
X195498600Y-56518599D01*
X195498600Y-56510641D01*
X195384526Y-55937152D01*
X195069474Y-55465644D01*
X195223299Y-55401927D01*
X195401927Y-55223298D01*
X195498600Y-54989909D01*
X195498600Y-54285750D01*
X195339850Y-54127000D01*
X194127000Y-54127000D01*
X194127000Y-54147000D01*
X193873000Y-54147000D01*
X193873000Y-54127000D01*
X193853000Y-54127000D01*
X193853000Y-53873000D01*
X193873000Y-53873000D01*
X193873000Y-52660150D01*
X193714250Y-52501400D01*
X193010090Y-52501400D01*
X192776701Y-52598073D01*
X192598073Y-52776702D01*
X192533737Y-52932023D01*
X192519670Y-52910971D01*
X192033489Y-52586115D01*
X191460000Y-52472041D01*
X190886511Y-52586115D01*
X190400330Y-52910971D01*
X190190000Y-53225752D01*
X189979670Y-52910971D01*
X189493489Y-52586115D01*
X188920000Y-52472041D01*
X188346511Y-52586115D01*
X187860330Y-52910971D01*
X187650000Y-53225752D01*
X187439670Y-52910971D01*
X186953489Y-52586115D01*
X186380000Y-52472041D01*
X185806511Y-52586115D01*
X185320330Y-52910971D01*
X185184002Y-53115000D01*
X184286340Y-53115000D01*
X184286335Y-53114999D01*
X184003851Y-53171190D01*
X183947660Y-53182367D01*
X183660545Y-53374210D01*
X183660543Y-53374213D01*
X180185100Y-56849655D01*
X180185100Y-56086610D01*
X180026350Y-55927860D01*
X178877000Y-55927860D01*
X178877000Y-57577590D01*
X179035750Y-57736340D01*
X179298415Y-57736340D01*
X178510085Y-58524670D01*
X164265328Y-58524670D01*
X163926653Y-58592037D01*
X163772440Y-58695078D01*
X163772440Y-58500000D01*
X163728162Y-58264683D01*
X163589090Y-58048559D01*
X163376890Y-57903569D01*
X163125000Y-57852560D01*
X162875000Y-57852560D01*
X162745411Y-57876944D01*
X162625000Y-57852560D01*
X162375000Y-57852560D01*
X162245411Y-57876944D01*
X162125000Y-57852560D01*
X161875000Y-57852560D01*
X161745411Y-57876944D01*
X161625000Y-57852560D01*
X161375000Y-57852560D01*
X161269295Y-57872450D01*
X161251310Y-57865000D01*
X161221250Y-57865000D01*
X161200938Y-57885312D01*
X161139683Y-57896838D01*
X160999273Y-57987190D01*
X160876890Y-57903569D01*
X160802192Y-57888442D01*
X160778750Y-57865000D01*
X160748690Y-57865000D01*
X160728247Y-57873468D01*
X160625000Y-57852560D01*
X160375000Y-57852560D01*
X160298771Y-57866903D01*
X160317633Y-57838675D01*
X160385000Y-57500000D01*
X160385000Y-56866580D01*
X161167963Y-56083616D01*
X163333779Y-56083616D01*
X163333784Y-56083617D01*
X163333789Y-56083616D01*
X163457036Y-56083616D01*
X163852560Y-56479139D01*
X163852560Y-57125000D01*
X163896838Y-57360317D01*
X164035910Y-57576441D01*
X164248110Y-57721431D01*
X164500000Y-57772440D01*
X166000000Y-57772440D01*
X166235317Y-57728162D01*
X166451441Y-57589090D01*
X166497969Y-57520994D01*
X166640302Y-57663327D01*
X166873691Y-57760000D01*
X167464250Y-57760000D01*
X167623000Y-57601250D01*
X167623000Y-56627000D01*
X167877000Y-56627000D01*
X167877000Y-57601250D01*
X168035750Y-57760000D01*
X168626309Y-57760000D01*
X168859698Y-57663327D01*
X169038327Y-57484699D01*
X169135000Y-57251310D01*
X169135000Y-56785750D01*
X168976250Y-56627000D01*
X167877000Y-56627000D01*
X167623000Y-56627000D01*
X167603000Y-56627000D01*
X167603000Y-56373000D01*
X167623000Y-56373000D01*
X167623000Y-55398750D01*
X167877000Y-55398750D01*
X167877000Y-56373000D01*
X168976250Y-56373000D01*
X169135000Y-56214250D01*
X169135000Y-55748690D01*
X169038327Y-55515301D01*
X168859698Y-55336673D01*
X168626309Y-55240000D01*
X168035750Y-55240000D01*
X167877000Y-55398750D01*
X167623000Y-55398750D01*
X167464250Y-55240000D01*
X166873691Y-55240000D01*
X166640302Y-55336673D01*
X166499064Y-55477910D01*
X166464090Y-55423559D01*
X166251890Y-55278569D01*
X166000000Y-55227560D01*
X165104139Y-55227560D01*
X164830280Y-54953700D01*
X164846984Y-54936995D01*
X165080000Y-54983345D01*
X165653489Y-54869271D01*
X166139670Y-54544415D01*
X166379824Y-54185000D01*
X166443595Y-54185000D01*
X166443600Y-54185001D01*
X166735184Y-54127000D01*
X166782275Y-54117633D01*
X167069390Y-53925790D01*
X168254800Y-52740380D01*
X170185753Y-54671332D01*
X170032559Y-54769910D01*
X169887569Y-54982110D01*
X169836560Y-55234000D01*
X169836560Y-57266000D01*
X169880838Y-57501317D01*
X170019910Y-57717441D01*
X170232110Y-57862431D01*
X170484000Y-57913440D01*
X172516000Y-57913440D01*
X172751317Y-57869162D01*
X172967441Y-57730090D01*
X173078840Y-57567052D01*
X173175182Y-57656385D01*
X173657056Y-57855975D01*
X173913000Y-57736836D01*
X173913000Y-56377000D01*
X174167000Y-56377000D01*
X174167000Y-57736836D01*
X174422944Y-57855975D01*
X174904818Y-57656385D01*
X175377188Y-57218379D01*
X175645983Y-56632946D01*
X175527367Y-56377000D01*
X174167000Y-56377000D01*
X173913000Y-56377000D01*
X173893000Y-56377000D01*
X173893000Y-56123000D01*
X173913000Y-56123000D01*
X173913000Y-54763164D01*
X174167000Y-54763164D01*
X174167000Y-56123000D01*
X175527367Y-56123000D01*
X175544231Y-56086610D01*
X177314900Y-56086610D01*
X177314900Y-57227649D01*
X177411573Y-57461038D01*
X177590201Y-57639667D01*
X177823590Y-57736340D01*
X178464250Y-57736340D01*
X178623000Y-57577590D01*
X178623000Y-55927860D01*
X177473650Y-55927860D01*
X177314900Y-56086610D01*
X175544231Y-56086610D01*
X175645983Y-55867054D01*
X175377188Y-55281621D01*
X174904818Y-54843615D01*
X174422944Y-54644025D01*
X174167000Y-54763164D01*
X173913000Y-54763164D01*
X173657056Y-54644025D01*
X173175182Y-54843615D01*
X173077602Y-54934097D01*
X172980090Y-54782559D01*
X172767890Y-54637569D01*
X172516000Y-54586560D01*
X172355673Y-54586560D01*
X172317633Y-54395326D01*
X172317633Y-54395325D01*
X172125790Y-54108210D01*
X172125787Y-54108208D01*
X170302580Y-52285000D01*
X177302460Y-52285000D01*
X177302460Y-53499620D01*
X177302460Y-53499620D01*
G37*
X177302460Y-53499620D02*
X177346738Y-53734937D01*
X177485810Y-53951061D01*
X177554357Y-53997897D01*
X177411573Y-54140682D01*
X177314900Y-54374071D01*
X177314900Y-55515110D01*
X177473650Y-55673860D01*
X178623000Y-55673860D01*
X178623000Y-55653860D01*
X178877000Y-55653860D01*
X178877000Y-55673860D01*
X180026350Y-55673860D01*
X180185100Y-55515110D01*
X180185100Y-54374071D01*
X180088427Y-54140682D01*
X179946727Y-53998982D01*
X180001541Y-53963710D01*
X180146531Y-53751510D01*
X180197540Y-53499620D01*
X180197540Y-52285000D01*
X194833420Y-52285000D01*
X195092183Y-52543763D01*
X194989910Y-52501400D01*
X194285750Y-52501400D01*
X194127000Y-52660150D01*
X194127000Y-53873000D01*
X195339850Y-53873000D01*
X195498600Y-53714250D01*
X195498600Y-53010091D01*
X195456236Y-52907815D01*
X195815000Y-53266579D01*
X195815000Y-56518599D01*
X195498600Y-56518599D01*
X195498600Y-56510641D01*
X195384526Y-55937152D01*
X195069474Y-55465644D01*
X195223299Y-55401927D01*
X195401927Y-55223298D01*
X195498600Y-54989909D01*
X195498600Y-54285750D01*
X195339850Y-54127000D01*
X194127000Y-54127000D01*
X194127000Y-54147000D01*
X193873000Y-54147000D01*
X193873000Y-54127000D01*
X193853000Y-54127000D01*
X193853000Y-53873000D01*
X193873000Y-53873000D01*
X193873000Y-52660150D01*
X193714250Y-52501400D01*
X193010090Y-52501400D01*
X192776701Y-52598073D01*
X192598073Y-52776702D01*
X192533737Y-52932023D01*
X192519670Y-52910971D01*
X192033489Y-52586115D01*
X191460000Y-52472041D01*
X190886511Y-52586115D01*
X190400330Y-52910971D01*
X190190000Y-53225752D01*
X189979670Y-52910971D01*
X189493489Y-52586115D01*
X188920000Y-52472041D01*
X188346511Y-52586115D01*
X187860330Y-52910971D01*
X187650000Y-53225752D01*
X187439670Y-52910971D01*
X186953489Y-52586115D01*
X186380000Y-52472041D01*
X185806511Y-52586115D01*
X185320330Y-52910971D01*
X185184002Y-53115000D01*
X184286340Y-53115000D01*
X184286335Y-53114999D01*
X184003851Y-53171190D01*
X183947660Y-53182367D01*
X183660545Y-53374210D01*
X183660543Y-53374213D01*
X180185100Y-56849655D01*
X180185100Y-56086610D01*
X180026350Y-55927860D01*
X178877000Y-55927860D01*
X178877000Y-57577590D01*
X179035750Y-57736340D01*
X179298415Y-57736340D01*
X178510085Y-58524670D01*
X164265328Y-58524670D01*
X163926653Y-58592037D01*
X163772440Y-58695078D01*
X163772440Y-58500000D01*
X163728162Y-58264683D01*
X163589090Y-58048559D01*
X163376890Y-57903569D01*
X163125000Y-57852560D01*
X162875000Y-57852560D01*
X162745411Y-57876944D01*
X162625000Y-57852560D01*
X162375000Y-57852560D01*
X162245411Y-57876944D01*
X162125000Y-57852560D01*
X161875000Y-57852560D01*
X161745411Y-57876944D01*
X161625000Y-57852560D01*
X161375000Y-57852560D01*
X161269295Y-57872450D01*
X161251310Y-57865000D01*
X161221250Y-57865000D01*
X161200938Y-57885312D01*
X161139683Y-57896838D01*
X160999273Y-57987190D01*
X160876890Y-57903569D01*
X160802192Y-57888442D01*
X160778750Y-57865000D01*
X160748690Y-57865000D01*
X160728247Y-57873468D01*
X160625000Y-57852560D01*
X160375000Y-57852560D01*
X160298771Y-57866903D01*
X160317633Y-57838675D01*
X160385000Y-57500000D01*
X160385000Y-56866580D01*
X161167963Y-56083616D01*
X163333779Y-56083616D01*
X163333784Y-56083617D01*
X163333789Y-56083616D01*
X163457036Y-56083616D01*
X163852560Y-56479139D01*
X163852560Y-57125000D01*
X163896838Y-57360317D01*
X164035910Y-57576441D01*
X164248110Y-57721431D01*
X164500000Y-57772440D01*
X166000000Y-57772440D01*
X166235317Y-57728162D01*
X166451441Y-57589090D01*
X166497969Y-57520994D01*
X166640302Y-57663327D01*
X166873691Y-57760000D01*
X167464250Y-57760000D01*
X167623000Y-57601250D01*
X167623000Y-56627000D01*
X167877000Y-56627000D01*
X167877000Y-57601250D01*
X168035750Y-57760000D01*
X168626309Y-57760000D01*
X168859698Y-57663327D01*
X169038327Y-57484699D01*
X169135000Y-57251310D01*
X169135000Y-56785750D01*
X168976250Y-56627000D01*
X167877000Y-56627000D01*
X167623000Y-56627000D01*
X167603000Y-56627000D01*
X167603000Y-56373000D01*
X167623000Y-56373000D01*
X167623000Y-55398750D01*
X167877000Y-55398750D01*
X167877000Y-56373000D01*
X168976250Y-56373000D01*
X169135000Y-56214250D01*
X169135000Y-55748690D01*
X169038327Y-55515301D01*
X168859698Y-55336673D01*
X168626309Y-55240000D01*
X168035750Y-55240000D01*
X167877000Y-55398750D01*
X167623000Y-55398750D01*
X167464250Y-55240000D01*
X166873691Y-55240000D01*
X166640302Y-55336673D01*
X166499064Y-55477910D01*
X166464090Y-55423559D01*
X166251890Y-55278569D01*
X166000000Y-55227560D01*
X165104139Y-55227560D01*
X164830280Y-54953700D01*
X164846984Y-54936995D01*
X165080000Y-54983345D01*
X165653489Y-54869271D01*
X166139670Y-54544415D01*
X166379824Y-54185000D01*
X166443595Y-54185000D01*
X166443600Y-54185001D01*
X166735184Y-54127000D01*
X166782275Y-54117633D01*
X167069390Y-53925790D01*
X168254800Y-52740380D01*
X170185753Y-54671332D01*
X170032559Y-54769910D01*
X169887569Y-54982110D01*
X169836560Y-55234000D01*
X169836560Y-57266000D01*
X169880838Y-57501317D01*
X170019910Y-57717441D01*
X170232110Y-57862431D01*
X170484000Y-57913440D01*
X172516000Y-57913440D01*
X172751317Y-57869162D01*
X172967441Y-57730090D01*
X173078840Y-57567052D01*
X173175182Y-57656385D01*
X173657056Y-57855975D01*
X173913000Y-57736836D01*
X173913000Y-56377000D01*
X174167000Y-56377000D01*
X174167000Y-57736836D01*
X174422944Y-57855975D01*
X174904818Y-57656385D01*
X175377188Y-57218379D01*
X175645983Y-56632946D01*
X175527367Y-56377000D01*
X174167000Y-56377000D01*
X173913000Y-56377000D01*
X173893000Y-56377000D01*
X173893000Y-56123000D01*
X173913000Y-56123000D01*
X173913000Y-54763164D01*
X174167000Y-54763164D01*
X174167000Y-56123000D01*
X175527367Y-56123000D01*
X175544231Y-56086610D01*
X177314900Y-56086610D01*
X177314900Y-57227649D01*
X177411573Y-57461038D01*
X177590201Y-57639667D01*
X177823590Y-57736340D01*
X178464250Y-57736340D01*
X178623000Y-57577590D01*
X178623000Y-55927860D01*
X177473650Y-55927860D01*
X177314900Y-56086610D01*
X175544231Y-56086610D01*
X175645983Y-55867054D01*
X175377188Y-55281621D01*
X174904818Y-54843615D01*
X174422944Y-54644025D01*
X174167000Y-54763164D01*
X173913000Y-54763164D01*
X173657056Y-54644025D01*
X173175182Y-54843615D01*
X173077602Y-54934097D01*
X172980090Y-54782559D01*
X172767890Y-54637569D01*
X172516000Y-54586560D01*
X172355673Y-54586560D01*
X172317633Y-54395326D01*
X172317633Y-54395325D01*
X172125790Y-54108210D01*
X172125787Y-54108208D01*
X170302580Y-52285000D01*
X177302460Y-52285000D01*
X177302460Y-53499620D01*
M02*
