M48
;DRILL file {KiCad (2015-09-28 BZR 6225)-product} date fre 11 dec 2015 17:32:24
;FORMAT={-:-/ absolute / inch / decimal}
FMAT,2
INCH,TZ
T1C0.040
%
G90
G05
M72
T1
X5.315Y-2.5689
X5.4134Y-3.1693
X5.4724Y-3.4252
X6.0992Y-2.0984
X6.1614Y-3.2087
X6.1992Y-2.0984
X6.2992Y-2.0984
X6.3992Y-2.0984
X6.4992Y-2.0984
X6.6339Y-3.2382
X6.752Y-2.2146
X6.852Y-2.2146
X7.0866Y-2.7657
X7.2244Y-3.1693
X7.3378Y-2.126
X7.3378Y-2.226
X7.4378Y-2.126
X7.4378Y-2.226
X7.5378Y-2.126
X7.5378Y-2.226
X7.6378Y-2.126
X7.6378Y-2.226
X7.7559Y-2.687
X7.7559Y-2.787
T0
M30
